<?xml version="1.0" encoding="UTF-8"?>
<svg width="360px" height="360px" viewBox="0 0 360 360" version="1.1" xmlns="http://www.w3.org/2000/svg" xmlns:xlink="http://www.w3.org/1999/xlink">
    <!-- Generator: Sketch 58 (84663) - https://sketch.com -->
    <title>hst-new copy 2</title>
    <desc>Created with Sketch.</desc>
    <g id="Page-1" stroke="none" stroke-width="1" fill="none" fill-rule="evenodd">
        <g id="hst-new-copy-2">
            <rect id="Rectangle" fill="#FFFFFF" fill-rule="nonzero" transform="translate(180.036585, 180.031488) rotate(45.000000) translate(-180.036585, -180.031488) " x="53.2463415" y="53.241244" width="253.580488" height="253.580488"></rect>
            <rect id="Rectangle" stroke="#E21E19" stroke-width="2.67073171" fill="#FFFFFF" fill-rule="nonzero" stroke-linecap="round" stroke-linejoin="round" transform="translate(180.036585, 180.041836) rotate(45.000000) translate(-180.036585, -180.041836) " x="69.8780488" y="69.8832992" width="220.317073" height="220.317073"></rect>
            <circle id="Oval" stroke="#E21E19" stroke-width="2.67073171" cx="180.036585" cy="180.285366" r="104.868293"></circle>
            <circle id="Oval" stroke="#000000" stroke-width="1.6902439" cx="180.036585" cy="180.790244" r="66.2560976"></circle>
            <circle id="Oval" stroke="#E21E19" stroke-width="2.67073171" cx="180.036585" cy="180.285366" r="66.2560976"></circle>
            <polygon id="Path" stroke="#18823D" stroke-width="0.5" fill="#18823D" fill-rule="nonzero" points="116.612195 137.663415 115.353659 139.807317 103.009756 138.343902 112.814634 144.12439 111.512195 146.319512 96.0878049 137.22439 97.3902439 135.029268 109.543902 136.492683 99.8780488 130.792683 101.195122 128.560976"></polygon>
            <path d="M120.731707,132.907317 C119.742158,134.268422 118.048909,134.926272 116.4,134.590244 C114.663415,134.287805 112.590244,133.160976 110.180488,131.209756 C107.770732,129.258537 106.253659,127.473171 105.629268,125.853659 C105.034397,124.299882 105.312853,122.546829 106.359904,121.253857 C107.406956,119.960884 109.063819,119.324068 110.707317,119.582927 C112.44878,119.895122 114.509756,121.014634 116.890244,122.941463 C119.270732,124.868293 120.804878,126.660976 121.492683,128.319512 C122.162385,129.865475 121.864669,131.66036 120.731707,132.907317 Z M118.778049,131.326829 C119.411072,130.559363 119.435279,129.457952 118.836585,128.663415 C117.841039,127.209831 116.603593,125.937736 115.178049,124.902439 C113.897409,123.758246 112.42645,122.846945 110.831707,122.209756 C109.928562,121.823185 108.878537,122.083755 108.260902,122.847716 C107.643268,123.611677 107.608431,124.692989 108.17561,125.495122 C109.134176,126.911452 110.332657,128.149552 111.717073,129.153659 C113.027417,130.318745 114.526994,131.25165 116.15122,131.912195 C117.06349,132.351251 118.15771,132.109434 118.8,131.326829 L118.778049,131.326829 Z" id="Shape" stroke="#18823D" stroke-width="0.5" fill="#18823D" fill-rule="nonzero"></path>
            <polygon id="Path" stroke="#18823D" stroke-width="0.5" fill="#18823D" fill-rule="nonzero" points="136.426829 117.695122 134.480488 119.268293 123.504878 113.458537 130.580488 122.370732 128.568293 123.965854 117.439024 109.946341 119.45122 108.35122 130.243902 114.073171 123.263415 105.292683 125.290244 103.682927"></polygon>
            <polygon id="Path" stroke="#18823D" stroke-width="0.5" fill="#18823D" fill-rule="nonzero" points="145.697561 112.229268 137.809756 116.795122 128.839024 101.304878 136.156098 97.0902439 137.414634 99.2853659 132.35122 102.212195 134.612195 106.119512 137.82439 104.260976 139.053659 106.390244 135.841463 108.24878 138.768293 113.370732 144.431707 110.092683"></polygon>
            <polygon id="Path" stroke="#18823D" stroke-width="0.5" fill="#18823D" fill-rule="nonzero" points="155.912195 107.992683 147.453659 111.373171 140.817073 94.7487805 148.631707 91.6317073 149.560976 93.9658537 144.12439 96.1609756 145.8 100.353659 149.246341 98.9780488 150.160976 101.260976 146.714634 102.636585 148.909756 108.117073 154.990244 105.687805"></polygon>
            <path d="M165.029268,96.4756098 C165.697561,99.2853659 165.756098,101.546341 165.204878,103.258537 C164.731628,104.901949 163.378347,106.142221 161.7,106.470732 L157.382927,107.502439 L153.234146,90.0878049 L157.55122,89.0560976 C159.196491,88.5942586 160.961879,89.0913918 162.12439,90.3439024 C163.392683,91.6219512 164.360976,93.6658537 165.029268,96.4756098 Z M162.6,97.002439 C162.078049,94.802439 161.417073,93.2804878 160.617073,92.4365854 C160.015416,91.6505666 159.020244,91.2734787 158.04878,91.4634146 L156.256098,91.8878049 L157.719512,98.1512195 L159.182927,104.414634 L160.97561,103.990244 C161.938404,103.738787 162.673821,102.960779 162.870732,101.985366 C163.221951,100.897561 163.131707,99.2341463 162.6,96.995122 L162.6,97.002439 Z" id="Shape" stroke="#18823D" stroke-width="0.5" fill="#18823D" fill-rule="nonzero"></path>
            <polygon id="Path" stroke="#18823D" stroke-width="0.5" fill="#18823D" fill-rule="nonzero" points="182.297561 88.6829268 179.041463 88.7634146 179.421951 104.253659 176.831707 104.319512 176.45122 88.8292683 173.195122 88.9097561 173.136585 86.502439 182.246341 86.2756098"></polygon>
            <path d="M188.670732,105.065854 C186.988032,104.964849 185.519988,103.888856 184.917073,102.314634 C184.239024,100.690244 184.073171,98.3365854 184.419512,95.2536585 C184.765854,92.1707317 185.44878,89.9268293 186.468293,88.5219512 C187.453969,87.1682843 189.090033,86.4473852 190.754168,86.6334657 C192.418303,86.8195463 193.854732,87.884006 194.517073,89.4219512 C195.195122,91.0560976 195.360976,93.395122 195.014634,96.4390244 C194.668293,99.4829268 193.982927,101.741463 192.958537,103.214634 C192.020207,104.624254 190.340156,105.3496 188.670732,105.065854 Z M188.956098,102.570732 C189.939553,102.675003 190.871301,102.108764 191.231707,101.187805 C191.925827,99.5772576 192.339114,97.8597688 192.453659,96.1097561 C192.731939,94.4117651 192.709649,92.67808 192.387805,90.9878049 C192.225287,90.0224898 191.443232,89.2814449 190.47057,89.171108 C189.497908,89.0607712 188.569735,89.6078112 188.195122,90.5121951 C187.504436,92.0872409 187.095788,93.771368 186.987805,95.4878049 C186.710228,97.2199369 186.730024,98.9867174 187.046341,100.712195 C187.191059,101.691443 187.973278,102.452683 188.956098,102.570732 Z" id="Shape" stroke="#18823D" stroke-width="0.5" fill="#18823D" fill-rule="nonzero"></path>
            <polygon id="Path" stroke="#18823D" stroke-width="0.5" fill="#18823D" fill-rule="nonzero" points="209.334146 109.917073 200.721951 106.946341 206.57561 90.0219512 214.529268 92.7658537 213.702439 95.1219512 208.170732 93.2121951 206.707317 97.4780488 210.219512 98.6926829 209.414634 101.019512 205.902439 99.804878 203.978049 105.387805 210.168293 107.52439"></polygon>
            <polygon id="Path" stroke="#18823D" stroke-width="0.5" fill="#18823D" fill-rule="nonzero" points="219.746341 115.141463 217.273171 113.868293 217.836585 107.282927 212.809756 111.541463 210.409756 110.304878 218.114634 103.821951 218.846341 94.5219512 221.246341 95.7585366 220.763415 101.612195 225.256098 97.8585366 227.656098 99.095122 220.55122 105.109756"></polygon>
            <polygon id="Path" stroke="#18823D" stroke-width="0.5" fill="#18823D" fill-rule="nonzero" points="236.568293 108.021951 233.897561 106.14878 225 118.836585 222.878049 117.373171 231.77561 104.634146 229.104878 102.760976 230.487805 100.792683 237.943902 106.02439"></polygon>
            <polygon id="Path" stroke="#18823D" stroke-width="0.5" fill="#18823D" fill-rule="nonzero" points="235.426829 127.785366 228.746341 121.587805 240.921951 108.468293 247.090244 114.190244 245.378049 116.034146 241.090244 112.053659 238.017073 115.360976 240.739024 117.885366 239.063415 119.685366 236.341463 117.160976 232.331707 121.463415 237.131707 125.919512"></polygon>
            <polygon id="Path" stroke="#18823D" stroke-width="0.5" fill="#18823D" fill-rule="nonzero" points="242.853659 136.778049 241.295122 134.839024 247.031707 123.812195 238.163415 130.97561 236.553659 128.978049 250.507317 117.760976 252.117073 119.758537 246.439024 130.602439 255.219512 123.570732 256.829268 125.560976"></polygon>
            <path d="M256.32439,141.863415 C253.836585,143.326829 251.692683,144.043902 249.892683,144.014634 C248.181913,144.042526 246.599585,143.110083 245.795122,141.6 L243.54878,137.773171 L258.980488,128.707317 L261.226829,132.534146 C262.153367,133.973198 262.195755,135.809984 261.336585,137.290244 C260.482927,138.87561 258.812195,140.4 256.32439,141.863415 Z M255.109756,139.668293 C257.060976,138.521951 258.32439,137.443902 258.9,136.434146 C259.467831,135.615487 259.518959,134.544645 259.031707,133.67561 L258.102439,132.087805 L252.541463,135.365854 L246.987805,138.629268 L247.92439,140.217073 C248.445835,141.066104 249.405918,141.543305 250.397561,141.446341 C251.558537,141.441463 253.129268,140.856098 255.109756,139.690244 L255.109756,139.668293 Z" id="Shape" stroke="#18823D" stroke-width="0.5" fill="#18823D" fill-rule="nonzero"></path>
            <path d="M169.390244,128.385366 L168.387805,128.634146 L167.429268,126.856098 L165.965854,127.229268 L165.965854,129.241463 L164.970732,129.490244 L164.970732,122.114634 L165.943902,121.873171 L169.390244,128.385366 Z M166.939024,125.94878 L165.929268,124.07561 L165.929268,126.197561 L166.939024,125.94878 Z" id="Shape" stroke="#E02017" stroke-width="0.5" fill="#E11F18" fill-rule="nonzero"></path>
            <polygon id="Path" stroke="#E02017" stroke-width="0.5" fill="#E11F18" fill-rule="nonzero" points="173.707317 127.704878 172.726829 127.858537 170.041463 123.658537 170.773171 128.158537 169.756098 128.319512 168.643902 121.243902 169.660976 121.082927 172.295122 125.209756 171.563415 120.77561 172.587805 120.614634"></polygon>
            <polygon id="Path" stroke="#E02017" stroke-width="0.5" fill="#E11F18" fill-rule="nonzero" points="175.74878 127.536585 174.746341 127.62439 174.109756 120.490244 175.112195 120.402439"></polygon>
            <polygon id="Path" stroke="#E02017" stroke-width="0.5" fill="#E11F18" fill-rule="nonzero" points="181.595122 127.317073 180.556098 127.317073 180.490244 123.3 179.268293 127.37561 177.804878 123.373171 177.870732 127.390244 176.846341 127.390244 176.729268 120.234146 177.753659 120.234146 179.15122 124.229268 180.409756 120.190244 181.44878 120.190244"></polygon>
            <path d="M184.309756,127.668293 C183.635175,127.649035 183.034223,127.236954 182.773171,126.614634 C182.231845,124.777287 182.388189,122.804741 183.212195,121.07561 C183.590414,120.527588 184.232016,120.222656 184.895786,120.275455 C185.559555,120.328255 186.144882,120.730784 186.431707,121.331707 C186.968185,123.167764 186.809282,125.137125 185.985366,126.863415 C185.632478,127.43651 184.977678,127.751043 184.309756,127.668293 L184.309756,127.668293 Z M184.390244,126.665854 C184.787228,126.700089 185.156083,126.458217 185.282927,126.080488 C185.539341,125.426507 185.682844,124.733733 185.707317,124.031707 C185.794355,123.350857 185.762166,122.660051 185.612195,121.990244 C185.533933,121.606418 185.210886,121.320861 184.820356,121.290297 C184.429827,121.259734 184.066289,121.491559 183.929268,121.858537 C183.673521,122.497131 183.532336,123.175807 183.512195,123.863415 C183.422647,124.558471 183.452341,125.263711 183.6,125.94878 C183.666506,126.341456 183.992973,126.637694 184.390244,126.665854 L184.390244,126.665854 Z" id="Shape" stroke="#E02017" stroke-width="0.5" fill="#E11F18" fill-rule="nonzero"></path>
            <polygon id="Path" stroke="#E02017" stroke-width="0.5" fill="#E11F18" fill-rule="nonzero" points="191.480488 122.246341 190.192683 122.034146 189.190244 128.15122 188.165854 127.982927 189.168293 121.865854 187.880488 121.653659 188.04878 120.731707 191.64878 121.32439"></polygon>
            <path d="M192.870732,129.065854 C192.210948,128.935394 191.687788,128.432245 191.531707,127.778049 C191.302828,125.878434 191.78216,123.961106 192.878049,122.392683 C193.341443,121.915307 194.023968,121.720787 194.669403,121.882145 C195.314837,122.043504 195.825526,122.536327 196.009756,123.17561 C196.231573,125.078983 195.741607,126.997146 194.634146,128.560976 C194.192675,129.05491 193.506716,129.251305 192.870732,129.065854 Z M193.112195,128.092683 C193.497818,128.194689 193.903123,128.019259 194.092683,127.668293 C194.444712,127.065471 194.692112,126.407386 194.82439,125.721951 C195.023813,125.063365 195.105552,124.374776 195.065854,123.687805 C195.053538,123.295332 194.782138,122.958748 194.401195,122.863513 C194.020252,122.768277 193.62239,122.937545 193.426829,123.278049 C193.072751,123.866765 192.825069,124.513215 192.695122,125.187805 C192.492646,125.858468 192.406039,126.558752 192.439024,127.258537 C192.44354,127.661266 192.725895,128.007379 193.119512,128.092683 L193.112195,128.092683 Z" id="Shape" stroke="#E02017" stroke-width="0.5" fill="#E11F18" fill-rule="nonzero"></path>
            <polygon id="Path" stroke="#18823D" stroke-width="0.5" fill="#18823D" fill-rule="nonzero" points="147.592683 250.37561 138.9 256.741463 134.934146 263.795122 132.695122 262.536585 136.660976 255.47561 137.619512 244.770732 139.968293 246.095122 139.434146 253.207317 145.163415 249.014634"></polygon>
            <path d="M146.187805,269.334146 C144.592235,268.80962 143.448793,267.403186 143.260976,265.734146 C143.012195,263.987805 143.441463,261.668293 144.54878,258.77561 C145.656098,255.882927 146.87561,253.880488 148.207317,252.768293 C149.499996,251.720783 151.253034,251.441778 152.807039,252.036223 C154.361044,252.630667 155.480336,254.008408 155.743902,255.65122 C155.987805,257.402439 155.563415,259.709756 154.470732,262.573171 C153.378049,265.436585 152.158537,267.45122 150.812195,268.617073 C149.548541,269.750342 147.735323,270.031506 146.187805,269.334146 Z M147.087805,266.985366 C148.014867,267.334913 149.061171,267.020123 149.641463,266.217073 C150.715513,264.831565 151.544551,263.27248 152.092683,261.607317 C152.785057,260.035017 153.196169,258.353421 153.307317,256.639024 C153.39294,255.662148 152.820248,254.746973 151.904246,254.396887 C150.988244,254.046801 149.951152,254.346733 149.363415,255.131707 C148.300397,256.483591 147.483101,258.011687 146.94878,259.646341 C146.245403,261.252801 145.822218,262.967813 145.697561,264.717073 C145.579843,265.69956 146.147524,266.635629 147.073171,266.985366 L147.087805,266.985366 Z" id="Shape" stroke="#18823D" stroke-width="0.5" fill="#18823D" fill-rule="nonzero"></path>
            <path d="M165.614634,268.880488 C165.424141,269.958141 164.954938,270.967179 164.253659,271.807317 C163.652329,272.445251 162.896088,272.916641 162.058537,273.17561 C161.242887,273.460674 160.364633,273.516356 159.519512,273.336585 C158.654469,273.140402 157.85674,272.718817 157.207317,272.114634 C156.542204,271.526598 156.051206,270.767323 155.787805,269.919512 C155.510339,268.861796 155.510339,267.750399 155.787805,266.692683 L158.502439,254.429268 L161.004878,254.985366 L158.22439,267.556098 C158.012922,268.290318 158.096955,269.078125 158.458537,269.75122 C158.796026,270.352715 159.38297,270.773492 160.060976,270.9 C160.702467,271.056899 161.38046,270.908335 161.897561,270.497561 C162.476116,270.034277 162.866256,269.37624 162.995122,268.646341 L165.77561,256.07561 L168.307317,256.631707 L165.614634,268.880488 Z" id="Path" stroke="#18823D" stroke-width="0.5" fill="#18823D" fill-rule="nonzero"></path>
            <path d="M178.368293,275.356098 L175.726829,275.173171 L173.941463,266.612195 L171.490244,266.436585 L170.904878,274.829268 L168.343902,274.653659 L169.602439,256.829268 L174.936585,257.202439 C176.20531,257.236643 177.40297,257.795728 178.243902,258.746341 C179.065692,259.73825 179.446345,261.022953 179.297561,262.302439 C179.235153,263.234308 178.927159,264.133046 178.404878,264.907317 C177.948422,265.645733 177.238111,266.192126 176.407317,266.443902 L178.368293,275.356098 Z M176.787805,262.017073 C176.860597,261.417732 176.668193,260.81647 176.260976,260.370732 C175.829838,259.924018 175.242368,259.661755 174.621951,259.639024 L171.980488,259.456098 L171.673171,263.846341 L174.314634,264.029268 C174.923266,264.083687 175.5286,263.894191 175.997561,263.502439 C176.457885,263.140266 176.744678,262.601203 176.787805,262.017073 Z" id="Shape" stroke="#18823D" stroke-width="0.5" fill="#18823D" fill-rule="nonzero"></path>
            <path d="M191.860976,269.57561 C191.981718,270.929841 191.618786,272.283059 190.836585,273.395122 C190.043174,274.540175 188.753408,275.240722 187.360976,275.282927 C185.998513,275.394679 184.657189,274.893024 183.702439,273.914634 C182.657549,272.908371 182.032687,271.543609 181.953659,270.095122 L184.404878,269.912195 C184.4205,270.72641 184.732711,271.50694 185.282927,272.107317 C185.764228,272.609395 186.449266,272.862913 187.141463,272.795122 C187.800473,272.72143 188.396734,272.370062 188.780488,271.829268 C189.226703,271.27896 189.43243,270.572105 189.35122,269.868293 C189.256955,269.207434 188.983674,268.584961 188.560976,268.068293 C187.878953,267.2834 187.041891,266.64813 186.102439,266.202439 C184.98215,265.658295 183.97048,264.91442 183.117073,264.007317 C182.544364,263.404198 182.175766,262.636286 182.063415,261.812195 C181.927201,260.606545 182.280416,259.396652 183.043902,258.453659 C183.798226,257.498432 184.9241,256.910209 186.139024,256.836585 C187.377035,256.704399 188.615334,257.083514 189.567148,257.886132 C190.518961,258.68875 191.101728,259.84525 191.180488,261.087805 L188.568293,261.285366 C188.570604,260.668398 188.28349,260.086044 187.792683,259.712195 C187.383225,259.376967 186.854547,259.22365 186.329268,259.287805 C185.806709,259.328507 185.328136,259.595865 185.019512,260.019512 C184.732622,260.450088 184.610528,260.969638 184.67561,261.482927 C184.739636,261.887493 184.93812,262.258683 185.239024,262.536585 C185.881994,263.098144 186.583605,263.588781 187.331707,264 C188.578848,264.654153 189.694989,265.532184 190.62439,266.590244 C191.326077,267.439179 191.756851,268.479155 191.860976,269.57561 Z" id="Path" stroke="#18823D" stroke-width="0.5" fill="#18823D" fill-rule="nonzero"></path>
            <polygon id="Path" stroke="#18823D" stroke-width="0.5" fill="#18823D" fill-rule="nonzero" points="205.236585 271.953659 196.346341 273.95122 192.439024 256.478049 200.641463 254.634146 201.190244 257.085366 195.482927 258.365854 196.470732 262.756098 200.129268 261.943902 200.663415 264.343902 197.004878 265.156098 198.3 270.921951 204.687805 269.458537"></polygon>
            <polygon id="Path" stroke="#18823D" stroke-width="0.5" fill="#18823D" fill-rule="nonzero" points="218.121951 267.365854 209.612195 270.629268 203.202439 253.902439 205.595122 252.980488 211.104878 267.35122 217.214634 265.009756"></polygon>
            <polygon id="Path" stroke="#18823D" stroke-width="0.5" fill="#18823D" fill-rule="nonzero" points="222.658537 247.543902 216.95122 250.74878 219.146341 254.685366 222.270732 252.929268 223.470732 255.073171 220.346341 256.829268 224.465854 264.146341 222.226829 265.404878 213.446341 249.797561 221.392683 245.334146"></polygon>
            <polygon id="Path" stroke="#E02017" stroke-width="0.5" fill="#E11F18" fill-rule="nonzero" points="177.182927 138.24878 176.187805 138.24878 174.190244 133.697561 174.190244 138.24878 173.165854 138.24878 173.165854 131.085366 174.190244 131.085366 176.143902 135.578049 176.143902 131.085366 177.182927 131.085366"></polygon>
            <polygon id="Path" stroke="#E02017" stroke-width="0.5" fill="#E11F18" fill-rule="nonzero" points="182.385366 131.085366 180.6 135.007317 180.6 138.24878 179.57561 138.24878 179.57561 135.007317 177.804878 131.085366 178.887805 131.085366 180.095122 133.67561 181.273171 131.085366"></polygon>
            <path d="M182.926829,134.678049 C182.827763,133.660776 183.047684,132.637884 183.556098,131.75122 C183.916384,131.248132 184.503428,130.957353 185.121951,130.97561 C185.604137,130.962032 186.071298,131.144145 186.417073,131.480488 C186.767768,131.824392 186.969987,132.29186 186.980488,132.782927 L185.941463,132.782927 C185.943293,132.561749 185.853191,132.349745 185.692683,132.197561 C185.526661,132.047916 185.308698,131.969135 185.085366,131.978049 C184.766367,132.008602 184.487677,132.206472 184.353659,132.497561 C183.927909,133.93001 183.927909,135.455356 184.353659,136.887805 C184.477413,137.126858 184.704775,137.295232 184.969528,137.34389 C185.23428,137.392547 185.506653,137.316016 185.707317,137.136585 C185.867825,136.984401 185.957927,136.772397 185.956098,136.55122 L186.995122,136.55122 C186.983499,137.039904 186.781306,137.504686 186.431707,137.846341 C186.085932,138.182684 185.618771,138.364798 185.136585,138.35122 C184.529013,138.345456 183.962948,138.041914 183.621951,137.539024 C183.103907,136.678569 182.861356,135.68028 182.926829,134.678049 L182.926829,134.678049 Z" id="Path" stroke="#E02017" stroke-width="0.5" fill="#E11F18" fill-rule="nonzero"></path>
            <path d="M158.780488,222.680488 C158.902422,224.123945 158.39017,225.549012 157.377158,226.584504 C156.364146,227.619996 154.950664,228.163398 153.504878,228.073171 L148.002439,228.073171 L148.002439,208.858537 L153.504878,208.858537 C154.857002,208.794914 156.172015,209.311336 157.119512,210.278049 C158.042604,211.297087 158.517221,212.644471 158.436585,214.017073 C158.436585,215.968293 157.74878,217.382927 156.373171,218.260976 C157.978049,219.026829 158.780488,220.5 158.780488,222.680488 Z M156.117073,222.680488 C156.138262,221.907889 155.878255,221.153868 155.385366,220.558537 C154.916466,219.980797 154.212369,219.644873 153.468293,219.643902 L150.731707,219.643902 L150.731707,225.636585 L153.512195,225.636585 C154.22832,225.606075 154.901508,225.286641 155.378049,224.75122 C155.877006,224.190644 156.141568,223.459825 156.117073,222.709756 L156.117073,222.680488 Z M155.743902,213.995122 C155.754932,213.340616 155.534688,212.703204 155.121951,212.195122 C154.769296,211.743201 154.231667,211.474386 153.658537,211.463415 L150.731707,211.463415 L150.731707,216.709756 L153.658537,216.709756 C154.263129,216.705258 154.828988,216.411447 155.180488,215.919512 C155.585804,215.373964 155.785351,214.702761 155.743902,214.02439 L155.743902,213.995122 Z" id="Shape" stroke="#E02017" stroke-width="0.5" fill="#E11F18" fill-rule="nonzero"></path>
            <path d="M172.112195,228.073171 L169.273171,228.073171 L166.719512,219.043902 L164.078049,219.043902 L164.078049,228.073171 L161.326829,228.073171 L161.326829,208.858537 L167.063415,208.858537 C168.425062,208.79872 169.750301,209.307612 170.721951,210.263415 C171.673718,211.26344 172.175888,212.608728 172.112195,213.987805 C172.123948,214.986875 171.871527,215.971315 171.380488,216.841463 C170.948059,217.664994 170.229974,218.302424 169.360976,218.634146 L172.112195,228.073171 Z M169.419512,213.914634 C169.455086,213.268071 169.203373,212.638789 168.731707,212.195122 C168.232831,211.760367 167.5854,211.534945 166.92439,211.565854 L164.085366,211.565854 L164.085366,216.3 L166.92439,216.3 C167.580002,216.312831 168.21402,216.065537 168.687805,215.612195 C169.171677,215.179964 169.43955,214.555819 169.419512,213.907317 L169.419512,213.914634 Z" id="Shape" stroke="#E02017" stroke-width="0.5" fill="#E11F18" fill-rule="nonzero"></path>
            <path d="M186.329268,228.073171 L183.54878,228.073171 L182.195122,222.826829 L178.097561,222.826829 L176.809756,228.073171 L174.058537,228.073171 L178.843902,208.865854 L181.536585,208.865854 L186.329268,228.073171 Z M181.543902,220.134146 L180.139024,214.602439 L178.792683,220.134146 L181.543902,220.134146 Z" id="Shape" stroke="#E02017" stroke-width="0.5" fill="#E11F18" fill-rule="nonzero"></path>
            <polygon id="Path" stroke="#E02017" stroke-width="0.5" fill="#E11F18" fill-rule="nonzero" points="198.885366 228.073171 196.221951 228.073171 190.858537 215.853659 190.858537 228.073171 188.107317 228.073171 188.107317 208.858537 190.858537 208.858537 196.097561 220.902439 196.097561 208.858537 198.878049 208.858537"></polygon>
            <path d="M212.078049,218.465854 C212.078049,221.563415 211.57561,223.939024 210.570732,225.592683 C209.668638,227.190318 207.947822,228.14821 206.114634,228.073171 L201.358537,228.073171 L201.358537,208.858537 L206.114634,208.858537 C207.947419,208.785191 209.667411,209.742625 210.570732,211.339024 C211.57561,212.992683 212.078049,215.368293 212.078049,218.465854 Z M209.414634,218.407317 C209.414634,215.968293 209.104878,214.214634 208.485366,213.146341 C208.035409,212.177664 207.072756,211.550094 206.004878,211.529268 L204.029268,211.529268 L204.029268,225.365854 L206.004878,225.365854 C207.072756,225.345028 208.035409,224.717458 208.485366,223.74878 C209.1,222.656098 209.407317,220.87561 209.407317,218.407317 L209.414634,218.407317 Z" id="Shape" stroke="#E02017" stroke-width="0.5" fill="#E11F18" fill-rule="nonzero"></path>
            <circle id="Oval" fill="#E11F18" fill-rule="nonzero" cx="180.036585" cy="146.634146" r="2.1"></circle>
            <path d="M214.141463,146.634146 C214.141463,142.514634 186.739024,146.634146 186.739024,146.634146 C186.739024,146.634146 214.141463,150.731707 214.141463,146.634146 Z" id="Path" stroke="#E02017" stroke-width="0.5" fill="#E11F18" fill-rule="nonzero"></path>
            <path d="M145.939024,146.634146 C145.939024,142.514634 173.341463,146.634146 173.341463,146.634146 C173.341463,146.634146 145.939024,150.731707 145.939024,146.634146 Z" id="Path" stroke="#E02017" stroke-width="0.5" fill="#E11F18" fill-rule="nonzero"></path>
            <rect id="Rectangle" fill="#FFFFFF" fill-rule="nonzero" x="56.7" y="154.74878" width="242.473171" height="46.1487805"></rect>
            <polygon id="Path" stroke="#18823D" stroke-width="0.665853659" fill="#18823D" fill-rule="nonzero" points="63.3512195 193.902439 58.8146341 193.902439 58.8146341 179.714634 50.2609756 179.714634 50.2609756 193.902439 45.7682927 193.902439 45.7682927 162.54878 50.2536585 162.54878 50.2536585 175.317073 58.8146341 175.317073 58.8146341 162.54878 63.3512195 162.54878"></polygon>
            <path d="M75.7317073,194.443902 C72.7877294,194.598495 70.0257595,193.015729 68.6707317,190.397561 C67.1731707,187.7 66.4243902,183.639024 66.4243902,178.214634 C66.4243902,172.790244 67.1731707,168.75122 68.6707317,166.097561 C70.0181121,163.46953 72.7823419,161.876875 75.7317073,162.029268 C78.6810728,161.876875 81.4453026,163.46953 82.7926829,166.097561 C84.2902439,168.809756 85.0390244,172.846341 85.0390244,178.207317 C85.0390244,183.568293 84.2902439,187.629268 82.7926829,190.390244 C81.439733,193.011253 78.6773282,194.597131 75.7317073,194.443902 L75.7317073,194.443902 Z M75.7317073,190.053659 C77.4439024,190.082927 78.6634146,189.131707 79.3902439,187.2 C80.1170732,185.268293 80.4902439,182.243902 80.5097561,178.126829 C80.5097561,174.073171 80.1365854,171.112195 79.3902439,169.243902 C78.6439024,167.37561 77.4243902,166.441463 75.7317073,166.441463 C74.0146341,166.441463 72.795122,167.37561 72.0731707,169.243902 C71.3512195,171.112195 70.9780488,174.073171 70.9536585,178.126829 C70.9536585,182.243902 71.3268293,185.268293 72.0731707,187.2 C72.8195122,189.131707 74.0390244,190.080488 75.7317073,190.046341 L75.7317073,190.053659 Z" id="Shape" stroke="#18823D" stroke-width="0.665853659" fill="#18823D" fill-rule="nonzero"></path>
            <polygon id="Path" stroke="#18823D" stroke-width="0.665853659" fill="#18823D" fill-rule="nonzero" points="102.439024 166.763415 96.7317073 166.763415 96.7317073 193.902439 92.195122 193.902439 92.195122 166.763415 86.4878049 166.763415 86.4878049 162.556098 102.439024 162.556098"></polygon>
            <path d="M132.812195,185.121951 C132.841151,187.497148 132.030002,189.806203 130.521951,191.641463 C128.98616,193.53455 126.642436,194.58556 124.207317,194.473171 C121.801621,194.4956 119.512023,193.44072 117.965854,191.597561 C116.277151,189.703969 115.367467,187.241549 115.419512,184.704878 L119.721951,184.704878 C119.644469,186.121197 120.083893,187.517472 120.958537,188.634146 C121.728529,189.581286 122.891782,190.121078 124.112195,190.097561 C125.300661,190.096696 126.429103,189.57526 127.2,188.670732 C128.053931,187.771347 128.510133,186.566237 128.465854,185.326829 C128.38592,184.159495 127.988704,183.036157 127.317073,182.078049 C126.231069,180.617618 124.853089,179.399115 123.270732,178.5 C121.386193,177.385367 119.722075,175.934534 118.360976,174.219512 C117.437355,173.084262 116.896895,171.685724 116.817073,170.22439 C116.73886,168.103755 117.513677,166.040212 118.968293,164.495122 C120.410665,162.929827 122.452237,162.054106 124.580488,162.087805 C126.757761,162.021811 128.867597,162.847586 130.42162,164.373982 C131.975643,165.900378 132.839127,167.995064 132.812195,170.173171 L128.231707,170.173171 C128.31927,169.09416 127.893656,168.036902 127.082927,167.319512 C126.411392,166.679144 125.507449,166.340827 124.580488,166.382927 C123.662014,166.384506 122.790309,166.788271 122.195122,167.487805 C121.626377,168.210257 121.342578,169.116331 121.397561,170.034146 C121.453281,170.749917 121.749896,171.425685 122.239024,171.95122 C123.28912,173.006474 124.449421,173.945999 125.7,174.753659 C127.788839,176.059374 129.619365,177.738597 131.1,179.707317 C132.202073,181.299034 132.798759,183.18599 132.812195,185.121951 L132.812195,185.121951 Z" id="Path" stroke="#18823D" stroke-width="0.665853659" fill="#18823D" fill-rule="nonzero"></path>
            <path d="M154.221951,193.902439 L149.685366,193.902439 L147.490244,185.34878 L140.802439,185.34878 L138.702439,193.902439 L134.217073,193.902439 L142.02439,162.570732 L146.414634,162.570732 L154.221951,193.902439 Z M146.414634,180.95122 L144.146341,171.907317 L141.95122,180.929268 L146.414634,180.95122 Z" id="Shape" stroke="#18823D" stroke-width="0.665853659" fill="#18823D" fill-rule="nonzero"></path>
            <path d="M173.114634,184.529268 C173.198076,186.442772 172.779327,188.3448 171.9,190.046341 C171.119838,191.355011 170.01619,192.441021 168.695122,193.2 C167.408325,193.996109 165.927735,194.423835 164.414634,194.436585 C162.86985,194.424964 161.355473,194.005987 160.02439,193.221951 C158.671853,192.476574 157.548525,191.376016 156.77561,190.039024 C155.902332,188.335302 155.483939,186.434894 155.560976,184.521951 L155.560976,162.570732 L160.046341,162.570732 L160.046341,185.121951 C159.982155,186.43227 160.416078,187.718356 161.260976,188.721951 C162.067768,189.624175 163.234389,190.120324 164.443902,190.07561 C165.600342,190.103699 166.704901,189.595979 167.436585,188.7 C168.247535,187.688599 168.663568,186.417099 168.607317,185.121951 L168.607317,162.585366 L173.143902,162.585366 L173.114634,184.529268 Z" id="Path" stroke="#18823D" stroke-width="0.665853659" fill="#18823D" fill-rule="nonzero"></path>
            <path d="M176.121951,178.265854 C176.121951,172.187805 177.034146,167.963415 178.858537,165.592683 C180.682927,163.221951 182.878049,162.036585 185.443902,162.036585 C187.547959,161.976683 189.58721,162.768113 191.1,164.231707 C192.634794,165.729088 193.524739,167.766246 193.580488,169.909756 L189.043902,169.909756 C189.053705,168.948598 188.664187,168.026476 187.968293,167.363415 C187.239596,166.70857 186.283753,166.364572 185.304878,166.404878 C184.056098,166.404878 182.965854,167.160976 182.034146,168.673171 C181.102439,170.185366 180.634146,173.373171 180.629268,178.236585 C180.629268,183.319512 181.104878,186.578049 182.056098,188.012195 C183.007317,189.446341 184.090244,190.131707 185.304878,190.068293 C186.283753,190.108599 187.239596,189.764601 187.968293,189.109756 C188.664187,188.446694 189.053705,187.524572 189.043902,186.563415 L193.580488,186.563415 C193.524739,188.706924 192.634794,190.744083 191.1,192.241463 C189.58721,193.705058 187.547959,194.496488 185.443902,194.436585 C182.858537,194.436585 180.663415,193.25122 178.858537,190.880488 C177.053659,188.509756 176.141463,184.304878 176.121951,178.265854 Z" id="Path" stroke="#18823D" stroke-width="0.665853659" fill="#18823D" fill-rule="nonzero"></path>
            <polygon id="Path" stroke="#18823D" stroke-width="0.665853659" fill="#18823D" fill-rule="nonzero" points="212.619512 193.902439 196.668293 193.902439 196.668293 162.54878 211.397561 162.54878 211.397561 166.939024 201.153659 166.939024 201.153659 174.878049 207.65122 174.878049 207.65122 179.180488 201.153659 179.180488 201.153659 189.512195 212.612195 189.512195"></polygon>
            <polygon id="Path" stroke="#18823D" stroke-width="0.665853659" fill="#18823D" fill-rule="nonzero" points="242.304878 166.763415 236.597561 166.763415 236.597561 193.902439 232.060976 193.902439 232.060976 166.763415 226.353659 166.763415 226.353659 162.556098 242.297561 162.556098"></polygon>
            <path d="M262.587805,193.902439 L257.956098,193.902439 L253.792683,179.173171 L249.512195,179.173171 L249.512195,193.902439 L245.026829,193.902439 L245.026829,162.54878 L254.378049,162.54878 C256.59667,162.456909 258.754682,163.285691 260.341463,164.839024 C261.894636,166.472021 262.713928,168.668252 262.609756,170.919512 C262.615676,172.552705 262.189021,174.158342 261.373171,175.573171 C260.667144,176.918757 259.493447,177.95973 258.073171,178.5 L262.587805,193.902439 Z M258.197561,170.802439 C258.248959,169.748606 257.837346,168.72492 257.070732,168 C256.263377,167.293745 255.215674,166.92443 254.143902,166.968293 L249.512195,166.968293 L249.512195,174.680488 L254.143902,174.680488 C255.212688,174.70182 256.246489,174.299348 257.019512,173.560976 C257.79152,172.845681 258.218095,171.832566 258.190244,170.780488 L258.197561,170.802439 Z" id="Shape" stroke="#18823D" stroke-width="0.665853659" fill="#18823D" fill-rule="nonzero"></path>
            <path d="M284.978049,193.902439 L280.441463,193.902439 L278.246341,185.34878 L271.558537,185.34878 L269.458537,193.902439 L264.965854,193.902439 L272.773171,162.570732 L277.163415,162.570732 L284.978049,193.902439 Z M277.170732,180.95122 L274.880488,171.929268 L272.685366,180.95122 L277.170732,180.95122 Z" id="Shape" stroke="#18823D" stroke-width="0.665853659" fill="#18823D" fill-rule="nonzero"></path>
            <polygon id="Path" stroke="#18823D" stroke-width="0.665853659" fill="#18823D" fill-rule="nonzero" points="292.32439 193.902439 287.934146 193.902439 287.934146 162.54878 292.32439 162.54878"></polygon>
            <polygon id="Path" stroke="#18823D" stroke-width="0.665853659" fill="#18823D" fill-rule="nonzero" points="314.319512 193.902439 309.973171 193.902439 301.229268 173.985366 301.229268 193.902439 296.743902 193.902439 296.743902 162.54878 301.229268 162.54878 309.782927 182.195122 309.782927 162.54878 314.319512 162.54878"></polygon>
            <circle id="Oval" stroke="#18823D" stroke-width="0.914634146" cx="322.390244" cy="180.043902" r="4.1195122"></circle>
            <path d="M323.839024,182.195122 L323.158537,182.195122 L322.55122,180.043902 L321.95122,180.043902 L321.95122,182.195122 L321.292683,182.195122 L321.292683,177.614634 L322.660976,177.614634 C322.985186,177.602136 323.300197,177.723906 323.531707,177.95122 C323.759032,178.191163 323.878042,178.513814 323.860976,178.843902 C323.860796,179.082857 323.797706,179.317553 323.678049,179.52439 C323.573733,179.719632 323.40215,179.870418 323.195122,179.94878 L323.839024,182.195122 Z M323.195122,178.814634 C323.203839,178.661101 323.145037,178.511423 323.034146,178.404878 C322.915431,178.299925 322.760769,178.244876 322.602439,178.25122 L321.95122,178.25122 L321.95122,179.378049 L322.631707,179.378049 C322.786415,179.380891 322.936099,179.323118 323.04878,179.217073 C323.147773,179.112773 323.200531,178.972965 323.195122,178.829268 L323.195122,178.814634 Z" id="Shape" stroke="#18823D" stroke-width="0.5" fill="#18823D" fill-rule="nonzero"></path>
        </g>
    </g>
</svg>