<?xml version="1.0" standalone="no"?>
<!DOCTYPE svg PUBLIC "-//W3C//DTD SVG 1.1//EN" "http://www.w3.org/Graphics/SVG/1.1/DTD/svg11.dtd" >
<svg xmlns="http://www.w3.org/2000/svg" xmlns:xlink="http://www.w3.org/1999/xlink" version="1.1">
<metadata></metadata>
<defs>
<font id="highway_gothic_narrowregular" horiz-adv-x="890" >
<font-face units-per-em="2048" ascent="1638" descent="-410" />
<missing-glyph horiz-adv-x="460" />
<glyph horiz-adv-x="0" />
<glyph unicode="&#xd;" horiz-adv-x="0" />
<glyph unicode=" "  horiz-adv-x="460" />
<glyph unicode="&#x09;" horiz-adv-x="460" />
<glyph unicode="&#xa0;" horiz-adv-x="460" />
<glyph unicode="!" horiz-adv-x="419" d="M98 98q0 43 34 77t77 34t76.5 -34t33.5 -77t-33.5 -76.5t-76.5 -33.5t-77 33.5t-34 76.5zM98 893v479h221v-479l-40 -539h-142z" />
<glyph unicode="&#x22;" d="M150 1372h210l-32 -555h-146zM528 1372h213l-34 -555h-144z" />
<glyph unicode="#" horiz-adv-x="1208" d="M82 410l24 168h197l33 239h-197l25 170h196l54 385h178l-57 -385h217l51 385h178l-51 -385h196l-24 -170h-197l-28 -239h192l-25 -168h-196l-60 -410h-178l60 410h-217l-58 -410h-170l60 410h-203zM481 578h211l35 239h-217z" />
<glyph unicode="$" horiz-adv-x="931" d="M84 403h188q0 -109 54.5 -172t138.5 -63q78 0 135 62.5t55 146.5q-2 68 -50 142.5t-177 156.5q-147 94 -215 187t-68 175q-2 147 94.5 251t245.5 106q158 0 259.5 -103.5t101.5 -251.5h-201q2 80 -50 125t-110 41q-68 -4 -104.5 -50t-34.5 -112q2 -43 37 -83.5 t152 -122.5q164 -111 236.5 -217.5t74.5 -235.5q0 -162 -100.5 -286t-276.5 -124q-162 0 -273.5 126t-111.5 302zM383 2h164v-233h-164v233zM385 1311v233h164v-233h-164z" />
<glyph unicode="%" horiz-adv-x="972" d="M49 0l787 1372h88l-785 -1372h-90zM78 1174q0 84 57.5 141t140.5 57q80 0 140.5 -58t60.5 -140h-74q2 51 -35.5 87.5t-91.5 36.5q-53 0 -91 -35.5t-38 -88.5q0 -51 38 -89t91 -38t91.5 37.5t35.5 89.5h74q0 -82 -59.5 -141.5t-141.5 -59.5t-140 59.5t-58 141.5zM489 201 q0 84 57.5 141t141.5 57q80 0 140.5 -58t60.5 -140h-74q2 51 -36 88t-91 37t-91 -36t-38 -89q0 -51 38 -89t91 -38t91 38t36 89h74q0 -82 -59.5 -141.5t-141.5 -59.5t-140.5 59.5t-58.5 141.5z" />
<glyph unicode="&#x26;" horiz-adv-x="993" d="M78 375q0 145 56 268t124 217l-35 84q-33 76 -37 168q2 139 72 211t180 72q109 0 182.5 -74t69.5 -215h-170q6 119 -76 117q-82 0 -82 -113q2 -98 66 -213l242 -438q20 123 18 225h180q-2 -135 -15 -239.5t-52 -221.5l114 -223h-217l-32 72q-98 -96 -254 -97 q-145 0 -239.5 111t-94.5 289zM254 377q0 -88 45 -157.5t125 -74.5q94 2 137 86l-225 418q-39 -49 -59.5 -117.5t-22.5 -154.5z" />
<glyph unicode="'" horiz-adv-x="522" d="M156 1372h211l-33 -555h-146z" />
<glyph unicode="(" horiz-adv-x="583" d="M86 631q0 446 236 778h178q-78 -125 -125 -217q-111 -236 -111 -567q0 -295 121 -572q33 -74 115 -211h-178q-236 332 -236 789z" />
<glyph unicode=")" horiz-adv-x="583" d="M86 -158q82 137 115 211q121 276 121 572q0 332 -111 567q-47 92 -125 217h178q236 -332 236 -778q0 -457 -236 -789h-178z" />
<glyph unicode="*" horiz-adv-x="931" d="M106 1034l54 174l225 -78l-8 242h178l-10 -242l225 72l53 -168l-229 -57l154 -182l-140 -107l-141 193l-139 -193l-140 111l150 182z" />
<glyph unicode="+" horiz-adv-x="972" d="M61 602v186h330v334h184v-334h338v-186h-338v-332h-184v332h-330z" />
<glyph unicode="," horiz-adv-x="419" d="M98 96q0 43 34 77t77 34t76.5 -34t33.5 -77q0 -113 -53 -184.5t-157 -97.5v32q98 57 112 140h-12q-43 0 -77 33.5t-34 76.5z" />
<glyph unicode="-" horiz-adv-x="542" d="M59 602v186h426v-186h-426z" />
<glyph unicode="." horiz-adv-x="419" d="M98 96q0 43 34 77t77 34t76.5 -34t33.5 -77q0 -47 -32.5 -78.5t-77.5 -31.5q-43 0 -77 33.5t-34 76.5z" />
<glyph unicode="/" horiz-adv-x="892" d="M0 0l709 1372h184l-715 -1372h-178z" />
<glyph unicode="0" horiz-adv-x="952" d="M68 686q0 352 98 530.5t309 178.5t309.5 -178.5t98.5 -530.5q0 -356 -98.5 -533.5t-309.5 -177.5t-309 177.5t-98 533.5zM264 690q0 -270 49 -397t162 -125q113 -2 162 125t49 397q0 266 -49 389t-162 123t-162 -123t-49 -389z" />
<glyph unicode="1" horiz-adv-x="563" d="M127 1128v156q106 2 166 88h143v-1372h-192v1128h-117z" />
<glyph unicode="2" horiz-adv-x="931" d="M82 0q2 178 106.5 404.5t315.5 406.5q76 61 115.5 114.5t39.5 100.5q0 63 -56 119.5t-136 56.5t-136.5 -56t-56.5 -136h-192q4 152 113.5 268.5t271.5 116.5q158 0 269.5 -102.5t111.5 -258.5q0 -106 -56.5 -189t-136.5 -155q-109 -100 -207 -230t-131 -267h531v-193 h-766z" />
<glyph unicode="3" horiz-adv-x="931" d="M82 360h192q8 -84 61.5 -138t131.5 -54q82 0 137 58.5t55 144.5q0 109 -53 186.5t-125 77.5h-53v192h41q74 2 115 58.5t41 144.5q0 80 -43 126t-115 46q-61 0 -102 -39t-48 -104h-190q10 147 106.5 241.5t233.5 94.5q147 0 246.5 -101.5t99.5 -261.5q-2 -211 -135 -299 q168 -100 170 -362q0 -170 -107.5 -283t-273.5 -113t-272.5 107.5t-112.5 277.5z" />
<glyph unicode="4" horiz-adv-x="993" d="M76 332v172l567 868h184v-858h91v-182h-91v-332h-198v332h-553zM309 516h320v490z" />
<glyph unicode="5" horiz-adv-x="931" d="M94 57l111 164q90 -51 196 -49q104 10 177 100t71 220q0 96 -53 167.5t-147 71.5q-88 -6 -142 -88h-174l10 729h645v-192h-458l-4 -289q63 31 141 31q172 -2 274.5 -127.5t102.5 -305.5q0 -213 -128 -363.5t-304 -150.5q-199 2 -318 82z" />
<glyph unicode="6" horiz-adv-x="931" d="M82 465q4 236 137 486.5t350 443.5l113 -148q-201 -190 -307 -422q35 16 80 17q184 -6 288.5 -123t104.5 -316q0 -197 -104.5 -312.5t-280.5 -115.5q-172 0 -276.5 122t-104.5 368zM270 422q0 -115 53.5 -184.5t139.5 -69.5q90 0 141 63.5t51 171.5q0 111 -51 175.5 t-141 64.5q-86 0 -139.5 -60.5t-53.5 -160.5z" />
<glyph unicode="7" horiz-adv-x="931" d="M82 1180v192h766v-192q-354 -586 -383 -1180h-197q43 614 344 1180h-530z" />
<glyph unicode="8" horiz-adv-x="931" d="M82 403q2 231 143 345q-121 90 -125 282q0 160 102.5 262.5t264.5 102.5q158 0 259 -102.5t101 -262.5q-2 -195 -116 -280q135 -98 137 -334q0 -190 -101.5 -316.5t-279.5 -124.5q-180 0 -282.5 135.5t-102.5 292.5zM274 403q0 -104 53.5 -169.5t139.5 -65.5t139 65.5 t53 169.5q0 111 -53 176.5t-139 65.5t-139.5 -65.5t-53.5 -176.5zM293 1030q0 -82 49 -132t125 -50q74 0 121 50t47 132q0 76 -48 124t-120 48q-76 0 -125 -48t-49 -124z" />
<glyph unicode="9" horiz-adv-x="931" d="M82 967q0 197 104.5 312.5t280.5 115.5q172 0 276.5 -122t104.5 -368q-4 -236 -137 -486.5t-351 -443.5l-112 148q201 190 307 422q-35 -16 -80 -17q-184 6 -288.5 123t-104.5 316zM274 967q0 -111 51.5 -175.5t141.5 -64.5q86 0 139 60.5t53 160.5q0 115 -53 184.5 t-139 69.5q-90 0 -141.5 -63.5t-51.5 -171.5z" />
<glyph unicode=":" horiz-adv-x="419" d="M98 96q0 43 34 77t77 34t76.5 -34t33.5 -77q0 -47 -32.5 -78.5t-77.5 -31.5q-43 0 -77 33.5t-34 76.5zM98 915q0 43 34 77t77 34t76.5 -34t33.5 -77q0 -47 -32.5 -78.5t-77.5 -31.5q-43 0 -77 33.5t-34 76.5z" />
<glyph unicode=";" horiz-adv-x="419" d="M98 96q0 43 34 77t77 34t76.5 -34t33.5 -77q0 -113 -53 -184.5t-157 -97.5v32q98 57 112 140h-12q-43 0 -77 33.5t-34 76.5zM98 915q0 43 34 77t77 34t76.5 -34t33.5 -77q0 -47 -32.5 -78.5t-77.5 -31.5q-43 0 -77 33.5t-34 76.5z" />
<glyph unicode="&#x3c;" horiz-adv-x="1196" d="M113 641v168l970 410v-179l-770 -315l770 -319v-181z" />
<glyph unicode="=" horiz-adv-x="972" d="M43 424v192h891v-192h-891zM43 774v193h891v-193h-891z" />
<glyph unicode="&#x3e;" horiz-adv-x="1196" d="M113 225v181l770 319l-770 315v179l970 -410v-168z" />
<glyph unicode="?" d="M92 1038q14 158 112.5 256.5t246.5 102.5q156 0 251 -99.5t95 -259.5q-2 -74 -31 -154.5t-78 -156.5q-47 -72 -102.5 -184.5t-57.5 -198.5h-176q0 92 37 189.5t103 195.5q72 111 99 178.5t27 122.5q2 72 -42 126t-125 54q-68 0 -117 -46t-64 -126h-178zM334 96 q0 43 33.5 77t76.5 34t77 -34t34 -77q0 -47 -33 -78.5t-78 -31.5q-43 0 -76.5 33.5t-33.5 76.5z" />
<glyph unicode="@" horiz-adv-x="1443" d="M43 674q0 303 205 512t500 209q287 0 469 -172t182 -439q0 -188 -99.5 -332.5t-232.5 -144.5q-119 -2 -174 92q-86 -51 -201 -51q-135 0 -205.5 65.5t-70.5 168.5q0 106 77.5 177.5t198.5 71.5q82 0 156 -22q4 90 -121 90q-96 0 -186 -47l-72 143q137 72 258 72 q297 0 297 -287v-278q-4 -61 51 -62q66 0 127.5 107.5t61.5 228.5q0 211 -139.5 342t-362.5 131q-240 0 -402.5 -167t-162.5 -410q0 -242 152.5 -399.5t412.5 -157.5q219 0 391 73l39 -145q-178 -72 -424 -72q-322 0 -523.5 186.5t-201.5 516.5zM588 592q0 -33 35.5 -56.5 t85.5 -23.5q73 0 139 37v98q-84 23 -156 23q-43 0 -73.5 -22.5t-30.5 -55.5z" />
<glyph unicode="A" horiz-adv-x="952" d="M39 0l342 1372h192l342 -1372h-198l-96 375h-293l-92 -375h-197zM377 567h196l-100 396z" />
<glyph unicode="B" horiz-adv-x="931" d="M82 0v1372h393q162 0 258 -102q94 -99 94 -259v-7v-6q0 -205 -147 -298q170 -82 172 -315q-2 -188 -108.5 -286.5t-268.5 -98.5h-393zM274 172h199q78 4 133.5 63.5t55.5 147.5t-53.5 151.5t-137.5 65.5h-197v-428zM276 809h207q63 1 109 57q44 54 43 131v7 q-2 80 -46 130t-106 50h-207v-375z" />
<glyph unicode="C" horiz-adv-x="931" d="M82 684q0 399 120 555t290 156q147 0 247.5 -97.5t108.5 -248.5h-199q-2 70 -47 111.5t-117 41.5q-82 0 -143 -99t-61 -419q1 -334 63 -428q60 -90 135 -90h6q72 0 117 42t47 111h199q-8 -152 -108.5 -249t-247.5 -97q-170 0 -290 156t-120 555z" />
<glyph unicode="D" horiz-adv-x="931" d="M84 0v1372h340q211 0 318.5 -177t107.5 -509t-107.5 -509t-318.5 -177h-340zM274 195h142q111 0 177 115.5t66 379.5q0 260 -66.5 376t-176.5 116h-142v-494v-493z" />
<glyph unicode="E" horiz-adv-x="931" d="M117 0v1372h645v-192h-449v-346h285v-189h-285v-452h502v-193h-698z" />
<glyph unicode="F" horiz-adv-x="931" d="M117 0v1372h698v-192h-502v-346h275v-189h-275v-645h-196z" />
<glyph unicode="G" horiz-adv-x="931" d="M84 684q4 397 122 554t288 157q147 0 247.5 -97.5t108.5 -248.5h-199q-2 70 -47 111.5t-117 41.5h-4q-79 0 -135 -76q-57 -79 -65 -442q2 -344 65 -433q60 -83 141 -83h11h8q72 0 110 70q34 65 34 193q0 19 -1 40h-153v193h352v-179q0 -238 -87 -374t-255 -136 q-211 0 -317.5 163t-106.5 546z" />
<glyph unicode="H" horiz-adv-x="952" d="M90 0v1372h197v-559h375v559h198v-1372h-198v621h-375v-621h-197z" />
<glyph unicode="I" horiz-adv-x="501" d="M154 0v1372h192v-1372h-192z" />
<glyph unicode="J" horiz-adv-x="931" d="M84 291l197 55q54 -178 183 -178h3q80 0 131 60.5t51 156.5v987h199v-987q0 -174 -103.5 -292t-277.5 -118q-117 0 -226.5 77t-156.5 239z" />
<glyph unicode="K" horiz-adv-x="931" d="M82 0v1372h197v-549l321 549h217l-282 -481l317 -891h-207l-242 670l-124 -211v-459h-197z" />
<glyph unicode="L" horiz-adv-x="931" d="M117 0v1372h196v-1179h502v-193h-698z" />
<glyph unicode="M" horiz-adv-x="1136" d="M117 0v1372h196l256 -770l254 770h199v-1372h-199v770l-254 -770l-256 770v-770h-196z" />
<glyph unicode="N" horiz-adv-x="952" d="M90 0v1372h197l375 -860v860h198v-1372h-190l-383 872v-872h-197z" />
<glyph unicode="O" horiz-adv-x="952" d="M68 686q0 352 98 530.5t309 178.5t309.5 -178.5t98.5 -530.5q0 -356 -98.5 -533.5t-309.5 -177.5t-309 177.5t-98 533.5zM264 690q0 -270 49 -397q48 -125 159 -125h3.5h2.5q110 0 159 125q49 127 49 397q0 266 -49 389t-162 123t-162 -123t-49 -389z" />
<glyph unicode="P" horiz-adv-x="972" d="M102 0v1372h410q162 0 261 -100.5t99 -265.5q-2 -147 -97 -254t-288 -107h-188v-645h-197zM299 842h203q74 0 126 49t52 121q0 78 -49 123t-129 45h-203v-338z" />
<glyph unicode="Q" horiz-adv-x="952" d="M68 686q0 352 98 530.5t309 178.5t309.5 -178.5t98.5 -530.5q-4 -403 -121 -565l90 -146l-154 -110l-84 137q-67 -27 -139 -27q-211 0 -309 177.5t-98 533.5zM264 690q0 -270 49 -397q48 -125 168 -125h4q16 2 33 10l-100 174l145 101l72 -121q49 92 51 358 q0 266 -49 389t-162 123t-162 -123t-49 -389z" />
<glyph unicode="R" horiz-adv-x="972" d="M102 0v1372h410q162 0 261 -100.5t99 -265.5q0 -109 -54 -204t-144 -128l198 -674h-202l-183 645h-188v-645h-197zM299 842h203q74 0 126 49t52 121q0 78 -49 123t-129 45h-203v-338z" />
<glyph unicode="S" horiz-adv-x="931" d="M84 403h188q0 -109 54.5 -172t138.5 -63q78 0 135 62q55 60 55 141v6q-2 68 -50 142.5t-177 156.5q-147 94 -215 187t-68 175v6q1 143 95 245q96 104 245 106q158 0 259.5 -103.5t101.5 -251.5h-201v6q0 76 -50 119q-48 41 -101 41h-9q-69 -4 -105 -50q-35 -44 -34 -105 v-7q2 -43 37 -83.5t152 -122.5q164 -111 236.5 -217.5t74.5 -235.5q0 -162 -100.5 -286t-276.5 -124q-162 0 -273.5 126t-111.5 302z" />
<glyph unicode="T" horiz-adv-x="829" d="M66 1188v184h698v-184h-250v-1188h-199v1188h-249z" />
<glyph unicode="U" horiz-adv-x="931" d="M82 410v962h197v-987q0 -98 53 -157.5t139 -59.5q80 0 131 60.5t51 156.5v987h199v-962q0 -150 -53 -242q-49 -84 -140.5 -138.5t-187.5 -54.5q-100 0 -193.5 53.5t-142.5 139.5q-53 94 -53 242z" />
<glyph unicode="V" horiz-adv-x="931" d="M43 1372h197l225 -893l227 893h199l-342 -1372h-170z" />
<glyph unicode="W" horiz-adv-x="1116" d="M39 1372h192l117 -731l133 731h156l129 -731l121 731h192l-221 -1372h-170l-129 717l-131 -717h-172z" />
<glyph unicode="X" horiz-adv-x="911" d="M53 0l297 713l-276 659h207l172 -414l174 414h207l-273 -659l297 -713h-213l-192 467l-193 -467h-207z" />
<glyph unicode="Y" horiz-adv-x="931" d="M29 1372h207l231 -495l225 495h213l-342 -751v-621h-196v621z" />
<glyph unicode="Z" horiz-adv-x="931" d="M88 0v184l530 1000h-477v192h703v-186l-539 -1002h539v-188h-756z" />
<glyph unicode="[" horiz-adv-x="563" d="M78 -334v1751h405v-149h-262v-1452h262v-150h-405z" />
<glyph unicode="\" horiz-adv-x="892" d="M0 1372h184l709 -1372h-178z" />
<glyph unicode="]" horiz-adv-x="563" d="M78 -184h262v1452h-262v149h405v-1751h-405v150z" />
<glyph unicode="^" horiz-adv-x="972" d="M59 690l355 801h145l354 -801h-182l-246 596l-239 -596h-187z" />
<glyph unicode="_" horiz-adv-x="1138" d="M-31 -276h1192v-132h-1192v132z" />
<glyph unicode="`" horiz-adv-x="399" d="M33 1372h227l109 -219h-117z" />
<glyph unicode="a" d="M119 313q0 170 86 266.5t215 96.5h8q84 0 160 -39v15q0 190 -146 194q-109 -4 -182 -82l-117 117q139 143 308 145q319 0 319 -381v-645h-182v43q-43 -57 -158 -61q-143 0 -227 79.5t-84 251.5zM303 324q0 -90 36 -131t101 -41q99 0 140 96v207q-61 41 -140 41 q-57 0 -97 -40t-40 -132z" />
<glyph unicode="b" d="M94 0v1296l197 99v-437q76 68 178 68q328 0 328 -520q0 -524 -353 -531q-92 0 -153 58v-33h-197zM297 268q41 -108 145 -108h2h2q154 0 158 346q0 336 -153 336h-4q-101 0 -150 -101v-473z" />
<glyph unicode="c" horiz-adv-x="808" d="M90 506q0 211 86 365.5t260 154.5q190 -2 281 -168l-121 -121q-59 92 -152 97h-4q-75 0 -120 -83q-46 -85 -46 -249q2 -206 56 -272q51 -63 112 -62h7h3q76 0 144 92l125 -125q-112 -153 -270 -153h-2q-174 0 -264.5 130t-94.5 394z" />
<glyph unicode="d" d="M94 506q0 520 328 520q102 0 178 -68v338l197 99v-1395h-197v33q-61 -57 -154 -58q-352 6 -352 531zM444 160h2h2q105 0 146 108v473q-49 101 -152 101h-2q-153 0 -153 -332q0 -350 157 -350z" />
<glyph unicode="e" d="M96 506q2 219 86 369.5t260 150.5q172 0 263 -169q84 -155 84 -391q0 -21 -1 -42h-499q2 -142 54 -202q49 -57 110 -56h8h6q74 0 135 94l119 -119q-105 -159 -264 -159h-2q-174 0 -264.5 130t-94.5 394zM285 596h311v11q0 105 -37 171q-39 70 -117 70q-74 0 -115.5 -62.5 t-41.5 -189.5z" />
<glyph unicode="f" horiz-adv-x="522" d="M49 817v184h111v173q0 98 45 159.5t129 61.5q80 0 139 -45v-152q-25 14 -59 14q-61 0 -62 -67v-144h121v-184h-121v-817h-192v817h-111z" />
<glyph unicode="g" d="M94 506q0 520 328 520q102 0 178 -68v58h197v-975q-12 -397 -389 -537l-93 154q287 117 285 375q-61 -57 -154 -58q-352 6 -352 531zM444 160h2h2q105 0 146 108v473q-49 101 -152 101h-2q-153 0 -153 -332q0 -350 157 -350z" />
<glyph unicode="h" d="M100 0v1300l189 95v-437q80 72 182 72q137 0 229.5 -90t92.5 -252v-688h-193v688q0 72 -42 117t-109 45q-63 0 -109.5 -44t-46.5 -118v-688h-193z" />
<glyph unicode="i" horiz-adv-x="440" d="M121 0v1020h196v-1020h-196zM121 1290q0 43 28.5 72t67.5 29q43 0 71.5 -29t28.5 -72q0 -41 -28.5 -68.5t-71.5 -27.5q-39 0 -67.5 27.5t-28.5 68.5z" />
<glyph unicode="j" horiz-adv-x="440" d="M-39 -328q141 125 160 328v1020h196v-1020q-18 -328 -270 -498zM121 1290q0 43 28.5 72t67.5 29q43 0 71.5 -29t28.5 -72q0 -41 -28.5 -68.5t-71.5 -27.5q-39 0 -67.5 27.5t-28.5 68.5z" />
<glyph unicode="k" d="M74 0v1298l192 97v-672l232 278h231l-221 -274l311 -727h-207l-239 563l-107 -131v-432h-192z" />
<glyph unicode="l" horiz-adv-x="440" d="M121 0v1296l196 99v-1395h-196z" />
<glyph unicode="m" horiz-adv-x="1361" d="M117 0v1020h184v-76q61 78 195 82q127 0 213 -121q70 121 215 121q150 -4 235.5 -99.5t87.5 -238.5v-688h-194v688q0 74 -38 115t-100 45q-61 -2 -101 -41t-40 -119v-688h-188v688q0 74 -44 116t-100 42q-66 0 -100.5 -44t-36.5 -114v-688h-188z" />
<glyph unicode="n" d="M100 0v1020h189v-62q80 72 182 72q137 0 229.5 -90t92.5 -252v-688h-193v688q0 72 -42 117t-109 45q-63 0 -109.5 -44t-46.5 -118v-688h-193z" />
<glyph unicode="o" d="M98 506q2 258 92.5 389t253.5 131q172 0 259.5 -130t87.5 -390q0 -240 -86.5 -382t-260.5 -142q-168 0 -256 135t-90 389zM287 502q2 -182 42 -264q38 -78 108 -78h7q82 0 120 85t42 265q-4 180 -47 257q-42 75 -111 75h-4q-74 0 -115.5 -77t-41.5 -263z" />
<glyph unicode="p" d="M94 -496v1512h197v-58q76 68 178 68q328 0 328 -520q0 -524 -353 -531q-92 0 -153 58v-430zM297 268q41 -108 145 -108h2h2q154 0 158 346q0 336 -153 336h-4q-101 0 -150 -101v-473z" />
<glyph unicode="q" d="M94 506q0 520 328 520q102 0 178 -68v58h197v-1413l-197 -99v529q-61 -57 -154 -58q-352 6 -352 531zM444 160h2h2q105 0 146 108v473q-49 101 -152 101h-2q-153 0 -153 -332q0 -350 157 -350z" />
<glyph unicode="r" horiz-adv-x="604" d="M125 0v1020h188v-59q42 65 128 65h3q79 0 140 -55l-49 -185q-33 51 -97 52q-125 0 -125 -164v-674h-188z" />
<glyph unicode="s" horiz-adv-x="686" d="M47 160l127 127q84 -123 174 -123h5q42 0 74 30q34 32 32 78q2 51 -47.5 106.5t-139.5 108.5q-96 55 -145 120t-49 163v5q0 99 72 174q74 77 182 77q170 -4 284 -164l-114 -114q-72 98 -172 100q-31 0 -49.5 -20.5t-20.5 -51.5q2 -37 25.5 -66.5t105.5 -78.5 q152 -100 199 -183.5t47 -175.5q-4 -119 -86 -204.5t-205 -85.5q-184 2 -299 178z" />
<glyph unicode="t" horiz-adv-x="583" d="M51 817v184h129v297l193 97v-394h159v-184h-159v-584q6 -71 65 -71h2q47 0 88 47l-49 -203q-49 -29 -108 -31q-93 1 -143 65q-48 62 -48 143v7v627h-129z" />
<glyph unicode="u" d="M98 332v688h193v-688q0 -72 42 -117t109 -45q63 0 109.5 44t46.5 118v688h193v-1020h-189v61q-79 -71 -179 -71h-3q-137 0 -229.5 90t-92.5 252z" />
<glyph unicode="v" horiz-adv-x="870" d="M33 1001h192l207 -673l203 673h203l-324 -1001h-158z" />
<glyph unicode="w" horiz-adv-x="1259" d="M29 1001h198l121 -612l182 612h193l186 -612l140 612h184l-217 -1001h-193l-192 664l-199 -664h-196z" />
<glyph unicode="x" d="M0 0l336 553l-273 448h226l153 -260l160 260h215l-264 -442l338 -559h-227l-222 371l-221 -371h-221z" />
<glyph unicode="y" d="M23 1001h208l213 -620l215 620h207l-485 -1497h-205l160 531z" />
<glyph unicode="z" horiz-adv-x="686" d="M55 0v154l367 663h-332v184h539v-174l-359 -645h359v-182h-574z" />
<glyph unicode="{" horiz-adv-x="686" d="M53 449v163q156 4 191 150q14 70 16 235q0 76 6 222q23 217 187 262q35 10 122 10h58v-158h-33q-111 0 -143 -47q-29 -39 -29 -158q0 -264 -10 -329q-16 -104 -60.5 -164t-138.5 -105q133 -55 178 -184q31 -90 31 -266q0 -197 4 -232q10 -76 51 -102q35 -20 117 -20h33 v-156h-58q-96 0 -141 14q-135 49 -162 205q-6 49 -6 209t-12 238q-18 125 -76 172q-49 39 -125 41z" />
<glyph unicode="|" horiz-adv-x="419" d="M158 -430v1921h102v-1921h-102z" />
<glyph unicode="}" horiz-adv-x="686" d="M53 -274h33q82 0 117 20q41 27 51 102q4 35 4 232q0 176 31 266q45 129 178 184q-94 45 -138 104.5t-61 164.5q-10 66 -10 329q0 119 -29 158q-33 47 -143 47h-33v158h58q88 0 122 -10q164 -45 187 -262q6 -145 6 -222q2 -166 16 -235q35 -145 191 -150v-163 q-76 -2 -125 -41q-57 -47 -76 -172q-12 -78 -12 -238t-6 -209q-27 -156 -162 -205q-45 -14 -141 -14h-58v156z" />
<glyph unicode="~" horiz-adv-x="1196" d="M86 557v205q106 121 279 121q109 0 315 -88q111 -47 172 -47q133 0 258 137v-211q-121 -115 -276 -115q-106 0 -289 82q-119 51 -197 51q-121 0 -262 -135z" />
<glyph unicode="&#xa1;" horiz-adv-x="419" d="M98 -12v479l39 539h142l40 -539v-479h-221zM98 1262q0 43 34 76.5t77 33.5t76.5 -33.5t33.5 -76.5t-33.5 -77t-76.5 -34t-77 34t-34 77z" />
<glyph unicode="&#xa2;" horiz-adv-x="808" d="M88 682q0 211 86 365.5t260 154.5q190 -2 281 -168l-121 -121q-59 92 -152 97q-78 2 -124 -83t-46 -249q2 -205 56.5 -271.5t117.5 -62.5q78 -2 148 92l125 -125q-113 -154 -273 -153q-174 0 -264 130t-94 394zM397 0v1372h80v-1372h-80z" />
<glyph unicode="&#xa3;" d="M82 0v178h35q121 141 121 348v136h-88v172h88v237q0 123 78.5 212t191.5 89q135 0 217 -84t82 -207h-189q2 47 -27.5 75t-70.5 30q-43 0 -69.5 -29t-26.5 -84v-239h180v-172h-180v-152q-2 -180 -92 -332h475v-178h-725z" />
<glyph unicode="&#xa4;" horiz-adv-x="1136" d="M76 354l139 135q-72 111 -72 236q0 127 72 236l-139 137l114 119l140 -140q106 72 237 72t238 -72l137 140l117 -119l-139 -137q72 -109 71 -236q0 -125 -71 -236l139 -135l-117 -118l-137 139q-106 -74 -238 -74q-131 0 -237 74l-140 -139zM307 725q0 -106 76 -182 t182 -76q109 0 184.5 75.5t75.5 182.5q0 109 -75.5 184.5t-184.5 75.5q-106 0 -182 -75.5t-76 -184.5z" />
<glyph unicode="&#xa5;" horiz-adv-x="931" d="M29 434v187h876v-187h-876zM29 1372h207l231 -495l225 495h213l-342 -751v-621h-196v621z" />
<glyph unicode="&#xa6;" horiz-adv-x="419" d="M160 360h102v-790h-102v790zM160 700v791h102v-791h-102z" />
<glyph unicode="&#xa7;" horiz-adv-x="686" d="M47 25l127 127q84 -123 174 -123q45 -2 79 30.5t32 77.5q2 51 -47.5 106.5t-139.5 108.5q-96 55 -145 120t-49 163q-2 166 119 254q-20 23 -69.5 87t-49.5 163q-2 102 72.5 179t181.5 77q170 -4 284 -164l-114 -115q-72 98 -172 101q-31 0 -49.5 -20.5t-20.5 -51.5 q2 -37 25.5 -66.5t105.5 -79.5q152 -100 199 -183t47 -175q-4 -152 -113 -240q41 -37 77 -104.5t36 -159.5q-4 -119 -86 -205t-205 -86q-184 2 -299 179zM262 649q6 -43 34.5 -72.5t104.5 -72.5q29 25 47.5 56.5t16.5 82.5q-12 49 -42 78t-97 74q-33 -29 -49.5 -63 t-14.5 -83z" />
<glyph unicode="&#xa8;" horiz-adv-x="727" d="M96 1272q0 41 30 70.5t71 29.5q43 0 72.5 -28.5t29.5 -71.5q0 -41 -29.5 -72t-72.5 -31q-39 0 -70 31t-31 72zM430 1272q0 41 29.5 70.5t70.5 29.5q43 0 73 -28.5t30 -71.5q0 -41 -30 -72t-73 -31q-39 0 -69.5 31t-30.5 72z" />
<glyph unicode="&#xa9;" horiz-adv-x="1525" d="M57 690q0 190 97.5 358.5t264.5 257.5t343 89q186 0 353 -94.5t255 -256.5q96 -168 96 -354t-95 -353t-261 -258t-348 -91q-188 0 -354 95t-258.5 260t-92.5 347zM176 690q0 -158 80 -295t218 -215t288 -78q156 0 294 81t215 218.5t77 288.5q0 160 -81 299t-220.5 215 t-284.5 76q-156 0 -293 -80t-215 -215q-78 -141 -78 -295zM393 688q0 256 180 352q84 45 197 45q254 0 317 -219l-110 -26q-57 143 -211 143q-121 0 -186 -90q-59 -80 -60 -207q0 -125 55 -203q61 -86 183 -86q84 0 147.5 49.5t81.5 131.5l115 -35q-29 -121 -120 -188.5 t-220 -67.5q-174 0 -275 114q-94 109 -94 287z" />
<glyph unicode="&#xaa;" horiz-adv-x="563" d="M68 926q0 113 55 176t141 63q57 2 111 -26q6 135 -96 139q-66 0 -119 -55l-82 82q82 88 207 90q211 0 211 -250v-426h-121v33q-47 -43 -103 -43q-96 0 -150 52t-54 165zM188 926q4 -102 91 -103q63 -1 90 60v137q-39 27 -86 27q-94 -6 -95 -121z" />
<glyph unicode="&#xab;" horiz-adv-x="1054" d="M55 606l240 420h240l-238 -420l238 -420h-240zM520 606l240 420h239l-237 -420l237 -420h-239z" />
<glyph unicode="&#xac;" horiz-adv-x="1075" d="M61 604v187h951v-461h-187v274h-764z" />
<glyph unicode="&#xad;" horiz-adv-x="542" d="M59 602v186h426v-186h-426z" />
<glyph unicode="&#xae;" horiz-adv-x="1443" d="M41 713q0 184 94 346t255 249t333 87q182 0 343 -91.5t247 -248.5q90 -164 90 -342q0 -182 -91 -344t-251 -250t-338 -88q-184 0 -344 92t-249 253t-89 337zM170 711q0 -152 74.5 -284t206 -204.5t272.5 -72.5q150 0 281 75.5t205.5 207.5t74.5 278q0 150 -79 283.5 t-210 204.5t-272 71q-147 0 -277.5 -75t-203.5 -204q-72 -137 -72 -280zM424 336v733h252q104 0 153 -10q84 -18 127 -80q33 -51 33 -109q0 -86 -53 -145q-45 -59 -135 -70l239 -319h-131l-243 311h-125v-311h-117zM541 750h145q80 -2 115 16q68 25 63 94q0 70 -69 98 q-31 12 -119 13h-135v-221z" />
<glyph unicode="&#xaf;" horiz-adv-x="665" d="M63 1237v92h539v-92h-539z" />
<glyph unicode="&#xb0;" horiz-adv-x="768" d="M106 1096q0 115 78 194q80 82 195 82q119 0 201 -80t82 -196q0 -117 -82 -197q-84 -82 -201 -82q-115 0 -193 80q-80 82 -80 199zM211 1096q0 -72 49 -121q51 -49 119 -49q72 0 121 49q51 51 51 121t-49 118q-51 49 -123 50q-68 0 -117 -50q-51 -48 -51 -118z" />
<glyph unicode="&#xb1;" horiz-adv-x="972" d="M61 51v187h852v-187h-852zM61 668v186h330v334h184v-334h338v-186h-338v-332h-184v332h-330z" />
<glyph unicode="&#xb2;" horiz-adv-x="604" d="M86 578q8 135 72.5 262t165.5 211q41 35 64.5 64.5t23.5 64.5q0 37 -33 69.5t-76 32.5q-45 0 -77.5 -32.5t-32.5 -80.5h-107q2 90 62.5 158t154.5 68q90 0 152.5 -59.5t62.5 -151.5q0 -61 -31.5 -110.5t-76.5 -86.5q-63 -57 -118.5 -137t-68.5 -158h295v-114h-432z" />
<glyph unicode="&#xb3;" horiz-adv-x="604" d="M86 801h107q4 -49 33.5 -80t74.5 -31q47 0 78 33t31 84q0 61 -30 106t-71 45h-30v111h22q43 2 66.5 34t23.5 83q0 45 -24.5 71.5t-65.5 26.5q-35 0 -57.5 -22.5t-26.5 -59.5h-108q6 86 60 139.5t132 53.5q84 0 140.5 -58.5t56.5 -148.5q-2 -123 -78 -172q96 -59 98 -209 q0 -98 -61.5 -163.5t-155.5 -65.5t-154.5 62t-60.5 161z" />
<glyph unicode="&#xb4;" horiz-adv-x="399" d="M33 1153l108 219h228l-219 -219h-117z" />
<glyph unicode="&#xb5;" d="M98 -317v1337h193v-688q0 -72 42 -117t109 -45q63 0 109.5 44t46.5 118v688h193v-1020l-189 -94v155q-80 -72 -182 -71q-88 -2 -129 53v-264z" />
<glyph unicode="&#xb6;" horiz-adv-x="768" d="M39 1065q0 152 84 233q78 74 211 74h397v-127h-92v-1245h-107v1245h-139v-1245h-102v768q-113 6 -182 84q-70 80 -70 213z" />
<glyph unicode="&#xb7;" horiz-adv-x="419" d="M98 915q0 43 34 77t77 34t76.5 -34t33.5 -77q0 -47 -32.5 -78.5t-77.5 -31.5q-43 0 -77 33.5t-34 76.5z" />
<glyph unicode="&#xb8;" horiz-adv-x="542" d="M53 -250q61 -18 116.5 -27.5t96.5 -9.5q35 0 51.5 15.5t16.5 48.5q0 25 -21.5 37t-72.5 12h-25.5h-17.5v174h90v-66h16q86 0 135 -40.5t49 -118.5q0 -88 -53 -133t-153 -45q-45 0 -101.5 11.5t-126.5 31.5v110z" />
<glyph unicode="&#xb9;" horiz-adv-x="358" d="M88 1260v92q63 6 100 43h80v-817h-112v682h-68z" />
<glyph unicode="&#xba;" horiz-adv-x="604" d="M74 1055q0 168 59.5 254t167.5 86q113 0 171 -85t58 -255q0 -160 -57 -253t-172 -93q-113 0 -170 88t-57 258zM197 1049q2 -125 29.5 -170t76.5 -43q53 -2 78 48t25 163q-2 133 -29 181t-72 46q-53 2 -80.5 -49t-27.5 -176z" />
<glyph unicode="&#xbb;" horiz-adv-x="1054" d="M55 186l238 420l-238 420h240l240 -420l-240 -420h-240zM520 186l238 420l-238 420h240l239 -420l-239 -420h-240z" />
<glyph unicode="&#xbc;" horiz-adv-x="1505" d="M127 1237v102q63 6 104 56h95v-893h-129v735h-70zM268 0l795 1397h108l-792 -1397h-111zM856 217v111l350 563h115v-557h57v-117h-57v-217h-125v217h-340zM1001 336h191v305z" />
<glyph unicode="&#xbd;" horiz-adv-x="1587" d="M147 1237v102q63 6 105 56h94v-893h-129v735h-70zM256 0l795 1397h108l-792 -1397h-111zM948 0q2 133 82 280.5t189 235.5q43 39 69.5 72t28.5 69q0 39 -36 75t-87 36q-49 0 -86 -36t-37 -87h-123q2 98 72 172t174 74q102 0 174 -64.5t72 -164.5q0 -68 -37 -121.5 t-88 -94.5q-72 -70 -132.5 -154.5t-76.5 -166.5h334v-125h-492z" />
<glyph unicode="&#xbe;" horiz-adv-x="1566" d="M78 750h123q6 -53 39.5 -87t85.5 -34q51 0 87 36.5t36 90.5q0 70 -34 119t-81 49h-35v118h27q47 0 73.5 36t26.5 91q0 51 -27.5 80t-72.5 29q-41 0 -67 -24.5t-30 -65.5h-123q6 92 68 149.5t152 57.5q94 0 158.5 -61.5t64.5 -162.5q-2 -133 -88 -188q108 -61 110 -227 q0 -106 -69.5 -179t-175.5 -73q-109 0 -177.5 69.5t-70.5 176.5zM367 0l794 1397h109l-793 -1397h-110zM909 217v111l348 563h115v-557h58v-117h-58v-217h-123v217h-340zM1061 332h190v305z" />
<glyph unicode="&#xbf;" d="M92 344q2 74 31 155t78 156q47 72 102 184.5t57 198.5h177q0 -92 -37 -189t-103 -196q-72 -111 -99.5 -178t-27.5 -123q-2 -72 42 -126t126 -54q68 0 117 46t63 126h179q-14 -158 -112.5 -256t-246.5 -102q-156 0 -251 99t-95 259zM334 1286q0 47 32.5 79t77.5 32 q43 0 77 -34t34 -77t-34 -76.5t-77 -33.5t-76.5 33.5t-33.5 76.5z" />
<glyph unicode="&#xc0;" horiz-adv-x="952" d="M39 0l342 1372h192l342 -1372h-198l-96 375h-293l-92 -375h-197zM307 1636h228l108 -219h-117zM377 567h196l-100 396z" />
<glyph unicode="&#xc1;" horiz-adv-x="952" d="M39 0l342 1372h192l342 -1372h-198l-96 375h-293l-92 -375h-197zM307 1417l109 219h227l-219 -219h-117zM377 567h196l-100 396z" />
<glyph unicode="&#xc2;" horiz-adv-x="952" d="M39 0l342 1372h192l342 -1372h-198l-96 375h-293l-92 -375h-197zM244 1430l137 223h184l146 -223h-117l-121 120l-121 -120h-108zM377 567h196l-100 396z" />
<glyph unicode="&#xc3;" horiz-adv-x="952" d="M39 0l342 1372h192l342 -1372h-198l-96 375h-293l-92 -375h-197zM215 1423q14 98 57 144.5t107 46.5q16 -2 34.5 -4t39.5 -8l75 -21q8 -4 19.5 -6t25.5 -2q27 0 43.5 17.5t26.5 47.5h94q-23 -100 -65.5 -147t-108.5 -47q-16 0 -30.5 2t-30.5 8l-74 21q-18 4 -30.5 7 t-22.5 3q-27 0 -43.5 -14.5t-28.5 -47.5h-88zM377 567h196l-100 396z" />
<glyph unicode="&#xc4;" horiz-adv-x="952" d="M39 0l342 1372h192l342 -1372h-198l-96 375h-293l-92 -375h-197zM207 1573q0 41 29.5 70.5t70.5 29.5q43 0 73 -28.5t30 -71.5q0 -41 -30 -72t-73 -31q-39 0 -69.5 31t-30.5 72zM377 567h196l-100 396zM541 1573q0 41 29.5 70.5t70.5 29.5q43 0 72.5 -28.5t29.5 -71.5 q0 -41 -29.5 -72t-72.5 -31q-39 0 -69.5 31t-30.5 72z" />
<glyph unicode="&#xc5;" horiz-adv-x="952" d="M39 0l342 1372h192l342 -1372h-198l-96 375h-293l-92 -375h-197zM276 1573q0 84 57.5 141.5t141.5 57.5q80 0 140.5 -58.5t60.5 -140.5h-74q2 51 -36 88t-91 37t-91 -36t-38 -89q0 -51 38 -89t91 -38t91 38t36 89h74q0 -82 -59.5 -141.5t-141.5 -59.5t-140.5 59.5 t-58.5 141.5zM377 567h196l-100 396z" />
<glyph unicode="&#xc6;" horiz-adv-x="1546" d="M86 0l608 1372h713v-192h-449v-346h285v-189h-285v-452h502v-193h-698v1057l-211 -490h211v-192h-301l-166 -375h-209z" />
<glyph unicode="&#xc7;" horiz-adv-x="931" d="M82 684q0 399 120 555t290 156q147 0 247.5 -97.5t108.5 -248.5h-199q-2 70 -47 111.5t-117 41.5q-82 0 -143 -99t-61 -419q0 -334 62.5 -428t141.5 -90q72 0 117 42t47 111h199q-8 -152 -108.5 -249t-247.5 -97q-170 0 -290 156t-120 555zM303 -250q61 -18 116.5 -27.5 t96.5 -9.5q35 0 51.5 15.5t16.5 48.5q0 25 -21.5 37t-73.5 12h-25h-18v174h91v-66h16q86 0 135 -40.5t49 -118.5q0 -88 -53 -133t-154 -45q-45 0 -101 11.5t-126 31.5v110z" />
<glyph unicode="&#xc8;" horiz-adv-x="931" d="M117 0v1372h645v-192h-449v-346h285v-189h-285v-452h502v-193h-698zM299 1636h227l109 -219h-117z" />
<glyph unicode="&#xc9;" horiz-adv-x="931" d="M117 0v1372h645v-192h-449v-346h285v-189h-285v-452h502v-193h-698zM299 1417l109 219h227l-219 -219h-117z" />
<glyph unicode="&#xca;" horiz-adv-x="931" d="M117 0v1372h645v-192h-449v-346h285v-189h-285v-452h502v-193h-698zM233 1430l138 223h184l145 -223h-116l-121 120l-121 -120h-109z" />
<glyph unicode="&#xcb;" horiz-adv-x="931" d="M117 0v1372h645v-192h-449v-346h285v-189h-285v-452h502v-193h-698zM199 1573q0 41 29.5 70.5t70.5 29.5q43 0 72.5 -28.5t29.5 -71.5q0 -41 -29.5 -72t-72.5 -31q-39 0 -69.5 31t-30.5 72zM532 1573q0 41 30 70.5t71 29.5q43 0 72.5 -28.5t29.5 -71.5q0 -41 -29.5 -72 t-72.5 -31q-39 0 -70 31t-31 72z" />
<glyph unicode="&#xcc;" horiz-adv-x="501" d="M84 1636h227l109 -219h-117zM154 0v1372h192v-1372h-192z" />
<glyph unicode="&#xcd;" horiz-adv-x="501" d="M84 1417l109 219h227l-219 -219h-117zM154 0v1372h192v-1372h-192z" />
<glyph unicode="&#xce;" horiz-adv-x="501" d="M18 1430l138 223h184l145 -223h-116l-121 120l-121 -120h-109zM154 0v1372h192v-1372h-192z" />
<glyph unicode="&#xcf;" horiz-adv-x="501" d="M-16 1573q0 41 29.5 70.5t70.5 29.5q43 0 72.5 -28.5t29.5 -71.5q0 -41 -29.5 -72t-72.5 -31q-39 0 -69.5 31t-30.5 72zM154 0v1372h192v-1372h-192zM317 1573q0 41 30 70.5t71 29.5q43 0 72.5 -28.5t29.5 -71.5q0 -41 -29.5 -72t-72.5 -31q-39 0 -70 31t-31 72z" />
<glyph unicode="&#xd0;" horiz-adv-x="1013" d="M68 602v186h426v-186h-426zM178 0v1372h340q211 0 318.5 -177t107.5 -509t-107.5 -509t-318.5 -177h-340zM369 195h141q111 0 177.5 115.5t66.5 379.5q0 260 -66.5 376t-177.5 116h-141v-494v-493z" />
<glyph unicode="&#xd1;" horiz-adv-x="952" d="M90 0v1372h197l375 -860v860h198v-1372h-190l-383 872v-872h-197zM215 1423q14 98 57 144.5t107 46.5q16 -2 34.5 -4t39.5 -8l75 -21q8 -4 19.5 -6t25.5 -2q27 0 43.5 17.5t26.5 47.5h94q-23 -100 -65.5 -147t-108.5 -47q-16 0 -30.5 2t-30.5 8l-74 21q-18 4 -30.5 7 t-22.5 3q-27 0 -43.5 -14.5t-28.5 -47.5h-88z" />
<glyph unicode="&#xd2;" horiz-adv-x="952" d="M68 686q0 -356 98 -533.5t309 -177.5t309.5 177.5t98.5 533.5q0 352 -98.5 530.5t-309.5 178.5t-309 -178.5t-98 -530.5zM264 690q0 266 49 389t162 123t162 -123t49 -389q0 -270 -49 -397t-162 -125q-113 -2 -162 125t-49 397zM307 1636h228l108 -219h-117z" />
<glyph unicode="&#xd3;" horiz-adv-x="952" d="M68 686q0 352 98 530.5t309 178.5t309.5 -178.5t98.5 -530.5q0 -356 -98.5 -533.5t-309.5 -177.5t-309 177.5t-98 533.5zM264 690q0 -270 49 -397t162 -125q113 -2 162 125t49 397q0 266 -49 389t-162 123t-162 -123t-49 -389zM307 1417l109 219h227l-219 -219h-117z" />
<glyph unicode="&#xd4;" horiz-adv-x="952" d="M68 686q0 -356 98 -533.5t309 -177.5t309.5 177.5t98.5 533.5q0 352 -98.5 530.5t-309.5 178.5t-309 -178.5t-98 -530.5zM244 1430l137 223h184l146 -223h-117l-121 120l-121 -120h-108zM264 690q0 266 49 389t162 123t162 -123t49 -389q0 -270 -49 -397t-162 -125 q-113 -2 -162 125t-49 397z" />
<glyph unicode="&#xd5;" horiz-adv-x="952" d="M68 686q0 -356 98 -533.5t309 -177.5t309.5 177.5t98.5 533.5q0 352 -98.5 530.5t-309.5 178.5t-309 -178.5t-98 -530.5zM215 1423q14 98 57 144.5t107 46.5q16 -2 34.5 -4t39.5 -8l75 -21q8 -4 19.5 -6t25.5 -2q27 0 43.5 17.5t26.5 47.5h94q-23 -100 -65.5 -147 t-108.5 -47q-16 0 -30.5 2t-30.5 8l-74 21q-18 4 -30.5 7t-22.5 3q-27 0 -43.5 -14.5t-28.5 -47.5h-88zM264 690q0 266 49 389t162 123t162 -123t49 -389q0 -270 -49 -397t-162 -125q-113 -2 -162 125t-49 397z" />
<glyph unicode="&#xd6;" horiz-adv-x="952" d="M68 686q0 -356 98 -533.5t309 -177.5t309.5 177.5t98.5 533.5q0 352 -98.5 530.5t-309.5 178.5t-309 -178.5t-98 -530.5zM207 1573q0 41 29.5 70.5t70.5 29.5q43 0 73 -28.5t30 -71.5q0 -41 -30 -72t-73 -31q-39 0 -69.5 31t-30.5 72zM264 690q0 266 49 389t162 123 t162 -123t49 -389q0 -270 -49 -397t-162 -125q-113 -2 -162 125t-49 397zM541 1573q0 41 29.5 70.5t70.5 29.5q43 0 72.5 -28.5t29.5 -71.5q0 -41 -29.5 -72t-72.5 -31q-39 0 -69.5 31t-30.5 72z" />
<glyph unicode="&#xd7;" horiz-adv-x="1196" d="M162 410l313 315l-313 313l123 121l313 -313l313 313l119 -121l-311 -313l313 -313l-121 -123l-313 313l-315 -313z" />
<glyph unicode="&#xd8;" horiz-adv-x="952" d="M20 -25l752 1420h158l-762 -1420h-148zM68 686q0 352 98 530.5t309 178.5t309.5 -178.5t98.5 -530.5q0 -356 -98.5 -533.5t-309.5 -177.5t-309 177.5t-98 533.5zM264 690q0 -270 49 -397t162 -125q113 -2 162 125t49 397q0 266 -49 389t-162 123t-162 -123t-49 -389z" />
<glyph unicode="&#xd9;" horiz-adv-x="931" d="M82 410v962h197v-987q0 -98 53 -157.5t139 -59.5q80 0 131 60.5t51 156.5v987h199v-962q0 -150 -53 -242q-49 -84 -140.5 -138.5t-187.5 -54.5q-100 0 -193.5 53.5t-142.5 139.5q-53 94 -53 242zM299 1636h227l109 -219h-117z" />
<glyph unicode="&#xda;" horiz-adv-x="931" d="M82 410v962h197v-987q0 -98 53 -157.5t139 -59.5q80 0 131 60.5t51 156.5v987h199v-962q0 -150 -53 -242q-49 -84 -140.5 -138.5t-187.5 -54.5q-100 0 -193.5 53.5t-142.5 139.5q-53 94 -53 242zM299 1417l109 219h227l-219 -219h-117z" />
<glyph unicode="&#xdb;" horiz-adv-x="931" d="M82 410v962h197v-987q0 -98 53 -157.5t139 -59.5q80 0 131 60.5t51 156.5v987h199v-962q0 -150 -53 -242q-49 -84 -140.5 -138.5t-187.5 -54.5q-100 0 -193.5 53.5t-142.5 139.5q-53 94 -53 242zM233 1430l138 223h184l145 -223h-116l-121 120l-121 -120h-109z" />
<glyph unicode="&#xdc;" horiz-adv-x="931" d="M82 410v962h197v-987q0 -98 53 -157.5t139 -59.5q80 0 131 60.5t51 156.5v987h199v-962q0 -150 -53 -242q-49 -84 -140.5 -138.5t-187.5 -54.5q-100 0 -193.5 53.5t-142.5 139.5q-53 94 -53 242zM199 1573q0 41 29.5 70.5t70.5 29.5q43 0 72.5 -28.5t29.5 -71.5 q0 -41 -29.5 -72t-72.5 -31q-39 0 -69.5 31t-30.5 72zM532 1573q0 41 30 70.5t71 29.5q43 0 72.5 -28.5t29.5 -71.5q0 -41 -29.5 -72t-72.5 -31q-39 0 -70 31t-31 72z" />
<glyph unicode="&#xdd;" horiz-adv-x="931" d="M29 1372h207l231 -495l225 495h213l-342 -751v-621h-196v621zM299 1417l109 219h227l-219 -219h-117z" />
<glyph unicode="&#xde;" horiz-adv-x="972" d="M102 0v1372h195v-291h213q162 0 261 -100t99 -266q-2 -147 -97 -254t-288 -107h-188v-354h-195zM297 551h203q74 0 126 49t52 121q0 78 -49 123t-129 45h-203v-338z" />
<glyph unicode="&#xdf;" horiz-adv-x="911" d="M96 -317v1345q2 178 102.5 272.5t237.5 94.5q147 0 246.5 -101.5t99.5 -261.5q-2 -211 -135 -299q168 -100 170 -362q0 -170 -107.5 -283t-273.5 -113h-39v193h39q82 0 137.5 58.5t55.5 144.5q0 109 -54.5 188.5t-123.5 75.5h-54v192h41q74 2 115 58.5t41 144.5 q0 80 -43 126t-115 46q-61 0 -103 -39t-46 -129v-1257z" />
<glyph unicode="&#xe0;" d="M119 313q0 170 86 266.5t215 96.5q88 2 168 -39q6 205 -146 209q-109 -4 -182 -82l-117 117q139 143 308 145q319 0 319 -381v-645h-182v43q-43 -57 -158 -61q-143 0 -227 79.5t-84 251.5zM276 1300h228l108 -219h-116zM303 324q0 -90 36 -131t101 -41q99 0 140 96v207 q-61 41 -140 41q-57 0 -97 -40t-40 -132z" />
<glyph unicode="&#xe1;" d="M119 313q0 170 86 266.5t215 96.5q88 2 168 -39q6 205 -146 209q-109 -4 -182 -82l-117 117q139 143 308 145q319 0 319 -381v-645h-182v43q-43 -57 -158 -61q-143 0 -227 79.5t-84 251.5zM276 1081l109 219h227l-219 -219h-117zM303 324q0 -90 36 -131t101 -41 q99 0 140 96v207q-61 41 -140 41q-57 0 -97 -40t-40 -132z" />
<glyph unicode="&#xe2;" d="M119 313q0 170 86 266.5t215 96.5q88 2 168 -39q6 205 -146 209q-109 -4 -182 -82l-117 117q139 143 308 145q319 0 319 -381v-645h-182v43q-43 -57 -158 -61q-143 0 -227 79.5t-84 251.5zM211 1087l137 224h184l146 -224h-117l-121 121l-121 -121h-108zM303 324 q0 -90 36 -131t101 -41q99 0 140 96v207q-61 41 -140 41q-57 0 -97 -40t-40 -132z" />
<glyph unicode="&#xe3;" d="M119 313q0 170 86 266.5t215 96.5q88 2 168 -39q6 205 -146 209q-109 -4 -182 -82l-117 117q139 143 308 145q319 0 319 -381v-645h-182v43q-43 -57 -158 -61q-143 0 -227 79.5t-84 251.5zM184 1065q14 98 57.5 144t106.5 46q16 -2 34.5 -4t39.5 -8l76 -20q8 -4 19 -6.5 t26 -2.5q27 0 43 17.5t26 48.5h95q-23 -100 -66 -147.5t-109 -47.5q-16 0 -30.5 2.5t-30.5 8.5l-74 20q-18 4 -30.5 7t-22.5 3q-27 0 -43 -14t-29 -47h-88zM303 324q0 -90 36 -131t101 -41q99 0 140 96v207q-61 41 -140 41q-57 0 -97 -40t-40 -132z" />
<glyph unicode="&#xe4;" d="M119 313q0 170 86 266.5t215 96.5q88 2 168 -39q6 205 -146 209q-109 -4 -182 -82l-117 117q139 143 308 145q319 0 319 -381v-645h-182v43q-43 -57 -158 -61q-143 0 -227 79.5t-84 251.5zM176 1180q0 41 30 70.5t70 29.5q43 0 73 -28.5t30 -71.5q0 -41 -30 -72t-73 -31 q-39 0 -69.5 31t-30.5 72zM303 324q0 -90 36 -131t101 -41q99 0 140 96v207q-61 41 -140 41q-57 0 -97 -40t-40 -132zM510 1180q0 41 29.5 70.5t70.5 29.5q43 0 73 -28.5t30 -71.5q0 -41 -30 -72t-73 -31q-39 0 -69.5 31t-30.5 72z" />
<glyph unicode="&#xe5;" d="M119 313q0 170 86 266.5t215 96.5q88 2 168 -39q6 205 -146 209q-109 -4 -182 -82l-117 117q139 143 308 145q319 0 319 -381v-645h-182v43q-43 -57 -158 -61q-143 0 -227 79.5t-84 251.5zM246 1268q0 84 57 141t141 57q80 0 140.5 -58t60.5 -140h-74q2 51 -35.5 88 t-91.5 37q-53 0 -91 -36t-38 -89q0 -51 38 -89t91 -38t91 38t36 89h74q0 -82 -59.5 -141.5t-141.5 -59.5t-140 59.5t-58 141.5zM303 324q0 -90 36 -131t101 -41q99 0 140 96v207q-61 41 -140 41q-57 0 -97 -40t-40 -132z" />
<glyph unicode="&#xe6;" horiz-adv-x="1341" d="M90 313q0 170 86 266.5t215 96.5q88 2 168 -39q6 205 -145 209q-109 -4 -183 -82l-116 117q139 143 307 145q319 0 319 -381v-352q-6 -125 -96 -218t-244 -93q-143 0 -227 79.5t-84 251.5zM274 324q0 -90 36 -131t102 -41q98 0 139 96v207q-61 41 -139 41 q-57 0 -97.5 -40t-40.5 -132zM551 506q0 211 86 365.5t260 154.5q172 0 263 -169t83 -433h-500q2 -141 54.5 -201.5t117.5 -56.5q78 -4 142 94l119 -119q-106 -160 -267 -159q-174 0 -264 130t-94 394zM739 596h312q2 111 -37 181.5t-117 70.5q-74 0 -116 -62.5t-42 -189.5z " />
<glyph unicode="&#xe7;" horiz-adv-x="808" d="M90 506q0 211 86 365.5t260 154.5q190 -2 281 -168l-121 -121q-59 92 -152 97q-78 2 -124 -83t-46 -249q2 -205 56.5 -271.5t118.5 -62.5q78 -2 147 92l125 -125q-113 -154 -272 -153q-174 0 -264.5 130t-94.5 394zM252 -250q61 -18 116.5 -27.5t96.5 -9.5q35 0 51 15.5 t16 48.5q0 25 -21.5 37t-72.5 12h-25.5h-17.5v174h90v-66h17q86 0 135 -40.5t49 -118.5q0 -88 -53 -133t-154 -45q-45 0 -101 11.5t-126 31.5v110z" />
<glyph unicode="&#xe8;" d="M96 506q2 219 86 369.5t260 150.5q172 0 263 -169t83 -433h-499q2 -141 54 -201.5t118 -56.5q78 -4 141 94l119 -119q-106 -160 -266 -159q-174 0 -264.5 130t-94.5 394zM276 1300h228l108 -219h-116zM285 596h311q2 111 -37 181.5t-117 70.5q-74 0 -115.5 -62.5 t-41.5 -189.5z" />
<glyph unicode="&#xe9;" d="M96 506q2 219 86 369.5t260 150.5q172 0 263 -169t83 -433h-499q2 -141 54 -201.5t118 -56.5q78 -4 141 94l119 -119q-106 -160 -266 -159q-174 0 -264.5 130t-94.5 394zM276 1081l109 219h227l-219 -219h-117zM285 596h311q2 111 -37 181.5t-117 70.5 q-74 0 -115.5 -62.5t-41.5 -189.5z" />
<glyph unicode="&#xea;" d="M96 506q2 219 86 369.5t260 150.5q172 0 263 -169t83 -433h-499q2 -141 54 -201.5t118 -56.5q78 -4 141 94l119 -119q-106 -160 -266 -159q-174 0 -264.5 130t-94.5 394zM211 1087l137 224h184l146 -224h-117l-121 121l-121 -121h-108zM285 596h311q2 111 -37 181.5 t-117 70.5q-74 0 -115.5 -62.5t-41.5 -189.5z" />
<glyph unicode="&#xeb;" d="M96 506q2 219 86 369.5t260 150.5q172 0 263 -169t83 -433h-499q2 -141 54 -201.5t118 -56.5q78 -4 141 94l119 -119q-106 -160 -266 -159q-174 0 -264.5 130t-94.5 394zM176 1180q0 41 30 70.5t70 29.5q43 0 73 -28.5t30 -71.5q0 -41 -30 -72t-73 -31q-39 0 -69.5 31 t-30.5 72zM285 596h311q2 111 -37 181.5t-117 70.5q-74 0 -115.5 -62.5t-41.5 -189.5zM510 1180q0 41 29.5 70.5t70.5 29.5q43 0 73 -28.5t30 -71.5q0 -41 -30 -72t-73 -31q-39 0 -69.5 31t-30.5 72z" />
<glyph unicode="&#xec;" horiz-adv-x="440" d="M53 1300h228l108 -219h-117zM121 0v1020h196v-1020h-196z" />
<glyph unicode="&#xed;" horiz-adv-x="440" d="M53 1081l109 219h227l-219 -219h-117zM121 0v1020h196v-1020h-196z" />
<glyph unicode="&#xee;" horiz-adv-x="440" d="M-12 1087l137 224h184l146 -224h-117l-121 121l-121 -121h-108zM121 0v1020h196v-1020h-196z" />
<glyph unicode="&#xef;" horiz-adv-x="440" d="M-47 1180q0 41 29.5 70.5t70.5 29.5q43 0 73 -28.5t30 -71.5q0 -41 -30 -72t-73 -31q-39 0 -69.5 31t-30.5 72zM121 0v1020h196v-1020h-196zM287 1180q0 41 29.5 70.5t70.5 29.5q43 0 72.5 -28.5t29.5 -71.5q0 -41 -29.5 -72t-72.5 -31q-39 0 -69.5 31t-30.5 72z" />
<glyph unicode="&#xf0;" d="M98 457q2 236 92.5 355.5t204.5 117.5q45 0 78 -21q-70 166 -280 336l104 150q486 -320 494 -938q0 -217 -86.5 -346t-260.5 -129q-168 0 -256 122.5t-90 352.5zM100 1030l615 307l65 -131l-616 -305zM293 453q2 -152 40 -219.5t111 -67.5q78 0 115 70.5t39 222.5 q0 143 -43 208.5t-111 65.5q-74 0 -111.5 -64.5t-39.5 -215.5z" />
<glyph unicode="&#xf1;" d="M100 0v1020h189v-62q80 72 182 72q137 0 229.5 -90t92.5 -252v-688h-193v688q0 72 -42 117t-109 45q-63 0 -109.5 -44t-46.5 -118v-688h-193zM184 1065q14 98 57.5 144t106.5 46q16 -2 34.5 -4t39.5 -8l76 -20q8 -4 19 -6.5t26 -2.5q27 0 43 17.5t26 48.5h95 q-23 -100 -66 -147.5t-109 -47.5q-16 0 -30.5 2.5t-30.5 8.5l-74 20q-18 4 -30.5 7t-22.5 3q-27 0 -43 -14t-29 -47h-88z" />
<glyph unicode="&#xf2;" d="M98 506q2 258 92.5 389t253.5 131q172 0 259.5 -130t87.5 -390q0 -240 -86.5 -382t-260.5 -142q-168 0 -256 135t-90 389zM276 1300h228l108 -219h-116zM287 502q2 -182 42 -264t115 -78q82 0 120 85t42 265q-4 180 -47 257t-115 75q-74 0 -115.5 -77t-41.5 -263z" />
<glyph unicode="&#xf3;" d="M98 506q2 258 92.5 389t253.5 131q172 0 259.5 -130t87.5 -390q0 -240 -86.5 -382t-260.5 -142q-168 0 -256 135t-90 389zM276 1081l109 219h227l-219 -219h-117zM287 502q2 -182 42 -264t115 -78q82 0 120 85t42 265q-4 180 -47 257t-115 75q-74 0 -115.5 -77 t-41.5 -263z" />
<glyph unicode="&#xf4;" d="M98 506q2 258 92.5 389t253.5 131q172 0 259.5 -130t87.5 -390q0 -240 -86.5 -382t-260.5 -142q-168 0 -256 135t-90 389zM211 1087l137 224h184l146 -224h-117l-121 121l-121 -121h-108zM287 502q2 -182 42 -264t115 -78q82 0 120 85t42 265q-4 180 -47 257t-115 75 q-74 0 -115.5 -77t-41.5 -263z" />
<glyph unicode="&#xf5;" d="M98 506q2 258 92.5 389t253.5 131q172 0 259.5 -130t87.5 -390q0 -240 -86.5 -382t-260.5 -142q-168 0 -256 135t-90 389zM184 1065q14 98 57.5 144t106.5 46q16 -2 34.5 -4t39.5 -8l76 -20q8 -4 19 -6.5t26 -2.5q27 0 43 17.5t26 48.5h95q-23 -100 -66 -147.5 t-109 -47.5q-16 0 -30.5 2.5t-30.5 8.5l-74 20q-18 4 -30.5 7t-22.5 3q-27 0 -43 -14t-29 -47h-88zM287 502q2 -182 42 -264t115 -78q82 0 120 85t42 265q-4 180 -47 257t-115 75q-74 0 -115.5 -77t-41.5 -263z" />
<glyph unicode="&#xf6;" d="M98 506q2 258 92.5 389t253.5 131q172 0 259.5 -130t87.5 -390q0 -240 -86.5 -382t-260.5 -142q-168 0 -256 135t-90 389zM176 1180q0 41 30 70.5t70 29.5q43 0 73 -28.5t30 -71.5q0 -41 -30 -72t-73 -31q-39 0 -69.5 31t-30.5 72zM287 502q2 -182 42 -264t115 -78 q82 0 120 85t42 265q-4 180 -47 257t-115 75q-74 0 -115.5 -77t-41.5 -263zM510 1180q0 41 29.5 70.5t70.5 29.5q43 0 73 -28.5t30 -71.5q0 -41 -30 -72t-73 -31q-39 0 -69.5 31t-30.5 72z" />
<glyph unicode="&#xf7;" horiz-adv-x="1177" d="M119 694v156h942v-156h-942zM469 463q0 49 35 84t86 35q45 0 81 -35t36 -84t-36 -84t-81 -35q-51 0 -86 35t-35 84zM469 1079q0 49 35 83t86 34q45 0 81 -34t36 -83t-36 -83.5t-81 -34.5q-51 0 -86 34.5t-35 83.5z" />
<glyph unicode="&#xf8;" d="M66 -18l581 1044h178l-583 -1044h-176zM98 506q2 258 92.5 389t253.5 131q172 0 259.5 -130t87.5 -390q0 -240 -86.5 -382t-260.5 -142q-168 0 -256 135t-90 389zM287 502q2 -182 42 -264t115 -78q82 0 120 85t42 265q-4 180 -47 257t-115 75q-74 0 -115.5 -77 t-41.5 -263z" />
<glyph unicode="&#xf9;" d="M98 332v688h193v-688q0 -72 42 -117t109 -45q63 0 109.5 44t46.5 118v688h193v-1020h-189v61q-80 -72 -182 -71q-137 0 -229.5 90t-92.5 252zM276 1300h228l108 -219h-116z" />
<glyph unicode="&#xfa;" d="M98 332v688h193v-688q0 -72 42 -117t109 -45q63 0 109.5 44t46.5 118v688h193v-1020h-189v61q-80 -72 -182 -71q-137 0 -229.5 90t-92.5 252zM276 1081l109 219h227l-219 -219h-117z" />
<glyph unicode="&#xfb;" d="M98 332v688h193v-688q0 -72 42 -117t109 -45q63 0 109.5 44t46.5 118v688h193v-1020h-189v61q-80 -72 -182 -71q-137 0 -229.5 90t-92.5 252zM211 1087l137 224h184l146 -224h-117l-121 121l-121 -121h-108z" />
<glyph unicode="&#xfc;" d="M98 332v688h193v-688q0 -72 42 -117t109 -45q63 0 109.5 44t46.5 118v688h193v-1020h-189v61q-80 -72 -182 -71q-137 0 -229.5 90t-92.5 252zM176 1180q0 41 30 70.5t70 29.5q43 0 73 -28.5t30 -71.5q0 -41 -30 -72t-73 -31q-39 0 -69.5 31t-30.5 72zM510 1180 q0 41 29.5 70.5t70.5 29.5q43 0 73 -28.5t30 -71.5q0 -41 -30 -72t-73 -31q-39 0 -69.5 31t-30.5 72z" />
<glyph unicode="&#xfd;" d="M23 1001h208l213 -620l215 620h207l-485 -1497h-205l160 531zM276 1081l109 219h227l-219 -219h-117z" />
<glyph unicode="&#xfe;" d="M94 -496v1790l197 101v-437q76 68 178 68q328 0 328 -520q0 -524 -353 -531q-92 0 -153 58v-430zM297 268q41 -109 147 -108q156 -2 160 346q0 336 -153 336q-104 2 -154 -101v-473z" />
<glyph unicode="&#xff;" d="M23 1001h208l213 -620l215 620h207l-485 -1497h-205l160 531zM176 1180q0 41 30 70.5t70 29.5q43 0 73 -28.5t30 -71.5q0 -41 -30 -72t-73 -31q-39 0 -69.5 31t-30.5 72zM510 1180q0 41 29.5 70.5t70.5 29.5q43 0 73 -28.5t30 -71.5q0 -41 -30 -72t-73 -31 q-39 0 -69.5 31t-30.5 72z" />
<glyph unicode="&#x152;" horiz-adv-x="1484" d="M84 686q0 352 98.5 530.5t309.5 178.5t309 -178.5t98 -530.5q0 -356 -98 -533.5t-309 -177.5t-309.5 177.5t-98.5 533.5zM281 690q0 -270 49 -397t162 -125q113 -2 161.5 125t48.5 397q0 266 -49 389t-161 123q-113 0 -162 -123t-49 -389zM702 0v1372h646v-192h-449v-346 h285v-189h-285v-452h502v-193h-699z" />
<glyph unicode="&#x153;" horiz-adv-x="1341" d="M66 506q2 258 92 389t254 131q172 0 259 -130t87 -390q0 -240 -86 -382t-260 -142q-168 0 -256 135t-90 389zM254 502q2 -182 42 -264t116 -78q82 0 119.5 85t41.5 265q-4 180 -44 257t-117 75q-74 0 -116 -77t-42 -263zM573 506q0 211 86 365.5t261 154.5 q172 0 263 -169t83 -433h-500q2 -141 54 -201.5t118 -56.5q78 -4 141 94l119 -119q-106 -160 -266 -159q-174 0 -264 130t-95 394zM762 596h311q2 111 -37 181.5t-116 70.5q-74 0 -116 -62.5t-42 -189.5z" />
<glyph unicode="&#x178;" horiz-adv-x="931" d="M29 1372h207l231 -495l225 495h213l-342 -751v-621h-196v621zM199 1573q0 41 29.5 70.5t70.5 29.5q43 0 72.5 -28.5t29.5 -71.5q0 -41 -29.5 -72t-72.5 -31q-39 0 -69.5 31t-30.5 72zM532 1573q0 41 30 70.5t71 29.5q43 0 72.5 -28.5t29.5 -71.5q0 -41 -29.5 -72 t-72.5 -31q-39 0 -70 31t-31 72z" />
<glyph unicode="&#x2c6;" horiz-adv-x="563" d="M47 1149l137 223h185l145 -223h-117l-121 121l-120 -121h-109z" />
<glyph unicode="&#x2dc;" horiz-adv-x="665" d="M72 1157q14 98 57 144.5t107 46.5q16 -2 34.5 -4.5t38.5 -8.5l76 -20q8 -4 19.5 -6t25.5 -2q27 0 43 17t27 48h94q-23 -100 -66 -147t-108 -47q-16 0 -30.5 2t-31.5 8l-73 20q-18 4 -30.5 7.5t-23.5 3.5q-27 0 -43 -14.5t-28 -47.5h-88z" />
<glyph unicode="&#x2000;" horiz-adv-x="886" />
<glyph unicode="&#x2001;" horiz-adv-x="1772" />
<glyph unicode="&#x2002;" horiz-adv-x="886" />
<glyph unicode="&#x2003;" horiz-adv-x="1772" />
<glyph unicode="&#x2004;" horiz-adv-x="590" />
<glyph unicode="&#x2005;" horiz-adv-x="443" />
<glyph unicode="&#x2006;" horiz-adv-x="295" />
<glyph unicode="&#x2007;" horiz-adv-x="295" />
<glyph unicode="&#x2008;" horiz-adv-x="221" />
<glyph unicode="&#x2009;" horiz-adv-x="354" />
<glyph unicode="&#x200a;" horiz-adv-x="98" />
<glyph unicode="&#x2010;" horiz-adv-x="542" d="M59 602v186h426v-186h-426z" />
<glyph unicode="&#x2011;" horiz-adv-x="542" d="M59 602v186h426v-186h-426z" />
<glyph unicode="&#x2012;" horiz-adv-x="542" d="M59 602v186h426v-186h-426z" />
<glyph unicode="&#x2013;" horiz-adv-x="1075" d="M61 602v186h951v-186h-951z" />
<glyph unicode="&#x2014;" horiz-adv-x="2119" d="M68 602v186h1982v-186h-1982z" />
<glyph unicode="&#x2018;" horiz-adv-x="419" d="M98 1090q0 113 53.5 184.5t157.5 97.5v-33q-98 -57 -112 -139h12q43 0 76.5 -33.5t33.5 -76.5t-33.5 -77t-76.5 -34t-77 34t-34 77z" />
<glyph unicode="&#x2019;" horiz-adv-x="419" d="M98 1262q0 43 34 76.5t77 33.5t76.5 -33.5t33.5 -76.5q0 -113 -53 -184.5t-157 -98.5v33q98 57 112 139h-12q-43 0 -77 34t-34 77z" />
<glyph unicode="&#x201c;" horiz-adv-x="808" d="M111 1090q0 113 53 184.5t158 97.5v-33q-98 -57 -113 -139h12q43 0 77 -33.5t34 -76.5t-34 -77t-77 -34t-76.5 34t-33.5 77zM475 1090q0 113 53.5 184.5t157.5 97.5v-33q-98 -57 -113 -139h13q43 0 76.5 -33.5t33.5 -76.5t-33.5 -77t-76.5 -34t-77 34t-34 77z" />
<glyph unicode="&#x201d;" horiz-adv-x="808" d="M111 1262q0 43 33.5 76.5t76.5 33.5t77 -33.5t34 -76.5q0 -113 -53.5 -184.5t-157.5 -98.5v33q98 57 112 139h-12q-43 0 -76.5 34t-33.5 77zM475 1262q0 43 34 76.5t77 33.5t76.5 -33.5t33.5 -76.5q0 -113 -53 -184.5t-158 -98.5v33q98 57 113 139h-12q-43 0 -77 34 t-34 77z" />
<glyph unicode="&#x201e;" horiz-adv-x="808" d="M111 96q0 43 33.5 77t76.5 34t77 -34t34 -77q0 -113 -53.5 -184.5t-157.5 -97.5v32q98 57 112 140h-12q-43 0 -76.5 33.5t-33.5 76.5zM475 96q0 43 34 77t77 34t76.5 -34t33.5 -77q0 -113 -53 -184.5t-158 -97.5v32q98 57 113 140h-12q-43 0 -77 33.5t-34 76.5z" />
<glyph unicode="&#x2022;" horiz-adv-x="1280" d="M123 621q0 217 149.5 366.5t366.5 149.5q215 0 366.5 -149.5t151.5 -366.5q0 -219 -150.5 -369t-367.5 -150q-215 0 -365.5 152t-150.5 367z" />
<glyph unicode="&#x2026;" horiz-adv-x="1341" d="M100 96q0 43 34 77t77 34t77 -34t34 -77q0 -47 -33 -78.5t-78 -31.5q-43 0 -77 33.5t-34 76.5zM559 96q0 43 34 77t77 34t76.5 -34t33.5 -77q0 -47 -32.5 -78.5t-77.5 -31.5q-43 0 -77 33.5t-34 76.5zM1020 96q0 43 33.5 77t76.5 34t77 -34t34 -77q0 -47 -32.5 -78.5 t-78.5 -31.5q-43 0 -76.5 33.5t-33.5 76.5z" />
<glyph unicode="&#x202f;" horiz-adv-x="354" />
<glyph unicode="&#x2039;" horiz-adv-x="563" d="M43 606l240 420h239l-237 -420l237 -420h-239z" />
<glyph unicode="&#x203a;" horiz-adv-x="563" d="M43 186l238 420l-238 420h240l239 -420l-239 -420h-240z" />
<glyph unicode="&#x205f;" horiz-adv-x="443" />
<glyph unicode="&#x20ac;" horiz-adv-x="952" d="M66 524v103h557v-103h-557zM66 750v102h557v-102h-557zM121 684q0 399 119.5 555t289.5 156q147 0 248 -97.5t109 -248.5h-199q-2 70 -47 111.5t-117 41.5q-82 0 -143.5 -99t-61.5 -419q0 -334 62.5 -428t142.5 -90q72 0 117 42t47 111h199q-8 -152 -108.5 -249 t-248.5 -97q-170 0 -289.5 156t-119.5 555z" />
<glyph unicode="&#x2122;" horiz-adv-x="1505" d="M76 1233v139h522v-139h-192v-567h-138v567h-192zM735 666v706h146l202 -387l197 387h147v-706h-147v383l-197 -383l-202 383v-383h-146z" />
<glyph unicode="&#x25fc;" horiz-adv-x="1003" d="M0 0v1004h1004v-1004h-1004z" />
</font>
</defs>
</svg>
